<svg width="31" height="30" viewBox="0 0 31 30" fill="none" xmlns="http://www.w3.org/2000/svg">
<g clip-path="url(#clip0)">
<path d="M15.0807 29.9983C23.3645 29.9983 30.0798 23.2829 30.0798 14.9991C30.0798 6.71535 23.3645 0 15.0807 0C6.79689 0 0.081543 6.71535 0.081543 14.9991C0.081543 23.2829 6.79689 29.9983 15.0807 29.9983Z" fill="#F3BA2F"/>
<path d="M11.4396 13.5029L15.0806 9.86189L18.7236 13.5048L20.8422 11.3862L15.0806 5.62463L9.32097 11.3843L11.4396 13.5029ZM5.70618 14.9991L7.82481 12.8805L9.94343 14.9991L7.82481 17.1177L5.70618 14.9991ZM11.4396 16.4953L15.0806 20.1363L18.7236 16.4934L20.8422 18.6111L15.0806 24.3736L9.32097 18.6139L9.31816 18.6111L11.4396 16.4953ZM20.2178 14.9991L22.3365 12.8805L24.4551 14.9991L22.3365 17.1177L20.2178 14.9991ZM17.2293 14.9972H17.2311V14.9991L15.0806 17.1496L12.933 15.0028L12.9292 14.9991L12.933 14.9963L13.3089 14.6194L13.4917 14.4366L15.0806 12.8486L17.2302 14.9982L17.2293 14.9972Z" fill="white"/>
</g>
<defs>
<clipPath id="clip0">
<rect width="29.9983" height="29.9983" fill="white" transform="translate(0.081543)"/>
</clipPath>
</defs>
</svg>
