<svg width="58" height="58" viewBox="0 0 58 58" fill="none" xmlns="http://www.w3.org/2000/svg">
<g clip-path="url(#clip0)">
<g clip-path="url(#clip1)">
<path opacity="0.65" d="M49.7238 48.7242C60.8701 37.5779 60.8701 19.5061 49.7238 8.35979C38.5775 -2.78653 20.5057 -2.78653 9.35938 8.35979C-1.78694 19.5061 -1.78694 37.5779 9.35938 48.7242C20.5057 59.8705 38.5775 59.8705 49.7238 48.7242Z" fill="url(#paint0_radial)"/>
<path d="M46.1985 45.199C55.3978 35.9996 55.3978 21.0844 46.1985 11.885C36.9991 2.68563 22.0839 2.68563 12.8845 11.885C3.68512 21.0844 3.68512 35.9996 12.8845 45.199C22.0839 54.3984 36.9991 54.3984 46.1985 45.199Z" fill="url(#paint1_radial)"/>
<path d="M30.3029 47.1519C40.5809 47.1519 48.9128 38.82 48.9128 28.542C48.9128 18.264 40.5809 9.93207 30.3029 9.93207C20.0249 9.93207 11.693 18.264 11.693 28.542C11.693 38.82 20.0249 47.1519 30.3029 47.1519Z" fill="url(#paint2_linear)"/>
<path d="M28.7811 47.1519C39.0591 47.1519 47.391 38.82 47.391 28.542C47.391 18.264 39.0591 9.93207 28.7811 9.93207C18.5031 9.93207 10.1712 18.264 10.1712 28.542C10.1712 38.82 18.5031 47.1519 28.7811 47.1519Z" fill="url(#paint3_linear)"/>
<path d="M28.7809 44.2049C37.4313 44.2049 44.4438 37.1924 44.4438 28.542C44.4438 19.8916 37.4313 12.879 28.7809 12.879C20.1305 12.879 13.118 19.8916 13.118 28.542C13.118 37.1924 20.1305 44.2049 28.7809 44.2049Z" fill="url(#paint4_linear)"/>
<path d="M28.9729 37.2514C27.2657 37.2514 25.7377 36.8836 24.3888 36.1479C23.061 35.4123 22.0177 34.4034 21.259 33.1213C20.5002 31.8181 20.1208 30.3468 20.1208 28.7074C20.1208 27.0679 20.5002 25.6072 21.259 24.325C22.0177 23.0219 23.061 22.013 24.3888 21.2984C25.7377 20.5627 27.2657 20.1949 28.9729 20.1949C30.4904 20.1949 31.8393 20.4997 33.0195 21.1092C34.2209 21.7187 35.1482 22.6015 35.8016 23.7575L33.4938 25.2393C32.9669 24.4406 32.3135 23.8416 31.5337 23.4422C30.7538 23.0429 29.8897 22.8432 28.9413 22.8432C27.8453 22.8432 26.8547 23.0849 25.9695 23.5684C25.1054 24.0518 24.4204 24.7454 23.9146 25.6492C23.4298 26.532 23.1875 27.5514 23.1875 28.7074C23.1875 29.8844 23.4298 30.9248 23.9146 31.8286C24.4204 32.7114 25.1054 33.3945 25.9695 33.8779C26.8547 34.3614 27.8453 34.6031 28.9413 34.6031C29.8897 34.6031 30.7538 34.4034 31.5337 34.004C32.3135 33.6047 32.9669 33.0057 33.4938 32.207L35.8016 33.6572C35.1482 34.8133 34.2209 35.7065 33.0195 36.3371C31.8393 36.9466 30.4904 37.2514 28.9729 37.2514Z" fill="white"/>
<path fill-rule="evenodd" clip-rule="evenodd" d="M27.8147 28.9932C27.957 29.3084 27.9842 29.6636 27.8916 29.9969C27.799 30.3301 27.5924 30.6204 27.3079 30.817C27.0233 31.0136 26.6788 31.1043 26.3343 31.0731C25.9899 31.0418 25.6672 30.8908 25.4227 30.6462C25.1781 30.4016 25.027 30.079 24.9958 29.7345C24.9646 29.3901 25.0552 29.0456 25.2519 28.761C25.4485 28.4765 25.7388 28.2699 26.072 28.1773C26.4053 28.0847 26.7605 28.1119 27.0757 28.2542L28.8152 26.5148C28.7136 26.2897 28.6701 26.0428 28.6885 25.7965C28.707 25.5503 28.7868 25.3126 28.9208 25.1051C29.0548 24.8977 29.2386 24.7272 29.4554 24.6091C29.6723 24.491 29.9153 24.4291 30.1622 24.4291C30.4092 24.4291 30.6522 24.491 30.869 24.6091C31.0859 24.7272 31.2697 24.8977 31.4037 25.1051C31.5377 25.3126 31.6175 25.5503 31.636 25.7965C31.6544 26.0428 31.6109 26.2897 31.5093 26.5148L33.2488 28.2542C33.4398 28.1676 33.6471 28.1228 33.8569 28.1228C34.0667 28.1228 34.274 28.1676 34.465 28.2542L36.9434 25.7759C36.8011 25.4606 36.7739 25.1054 36.8665 24.7722C36.9591 24.4389 37.1656 24.1487 37.4502 23.952C37.7347 23.7554 38.0793 23.6648 38.4237 23.696C38.7682 23.7272 39.0908 23.8782 39.3354 24.1228C39.58 24.3674 39.731 24.69 39.7622 25.0345C39.7934 25.379 39.7028 25.7235 39.5062 26.008C39.3095 26.2926 39.0193 26.4991 38.6861 26.5917C38.3528 26.6843 37.9976 26.6571 37.6824 26.5148L35.204 28.9932C35.3055 29.2182 35.3491 29.4652 35.3306 29.7114C35.3122 29.9577 35.2323 30.1954 35.0984 30.4028C34.9644 30.6102 34.7806 30.7808 34.5637 30.8989C34.3468 31.017 34.1038 31.0789 33.8569 31.0789C33.61 31.0789 33.367 31.017 33.1501 30.8989C32.9332 30.7808 32.7494 30.6102 32.6155 30.4028C32.4815 30.1954 32.4016 29.9577 32.3832 29.7114C32.3647 29.4652 32.4083 29.2182 32.5098 28.9932L30.7704 27.2537C30.5793 27.3403 30.372 27.3851 30.1622 27.3851C29.9525 27.3851 29.7451 27.3403 29.5541 27.2537L27.8147 28.9932V28.9932Z" fill="white"/>
<path d="M28.7809 44.2049C37.4313 44.2049 44.4438 37.1924 44.4438 28.542C44.4438 19.8916 37.4313 12.879 28.7809 12.879C20.1305 12.879 13.118 19.8916 13.118 28.542C13.118 37.1924 20.1305 44.2049 28.7809 44.2049Z" stroke="#79F2BB" stroke-width="4" stroke-miterlimit="10"/>
</g>
</g>
<defs>
<radialGradient id="paint0_radial" cx="0" cy="0" r="1" gradientUnits="userSpaceOnUse" gradientTransform="translate(29.5413 28.5417) scale(35.461)">
<stop stop-color="#41C89A"/>
<stop offset="0.99" stop-color="#42C99B" stop-opacity="0"/>
</radialGradient>
<radialGradient id="paint1_radial" cx="0" cy="0" r="1" gradientUnits="userSpaceOnUse" gradientTransform="translate(29.5412 28.5417) scale(33.6438)">
<stop stop-color="#55D6A2"/>
<stop offset="0.99" stop-color="#38C297" stop-opacity="0"/>
</radialGradient>
<linearGradient id="paint2_linear" x1="36.1697" y1="28.542" x2="69.3321" y2="28.542" gradientUnits="userSpaceOnUse">
<stop stop-color="#20978D"/>
<stop offset="0.99" stop-color="#33BE95"/>
</linearGradient>
<linearGradient id="paint3_linear" x1="42.7162" y1="42.4771" x2="13.7977" y2="13.5547" gradientUnits="userSpaceOnUse">
<stop stop-color="#20B18D"/>
<stop offset="0.99" stop-color="#66E2A9"/>
</linearGradient>
<linearGradient id="paint4_linear" x1="1523.96" y1="1688.5" x2="3297.01" y2="3210.31" gradientUnits="userSpaceOnUse">
<stop stop-color="#20B18D"/>
<stop offset="0.99" stop-color="#66E2A9"/>
</linearGradient>
<clipPath id="clip0">
<rect width="57.0818" height="57.0818" fill="white" transform="translate(0.917969)"/>
</clipPath>
<clipPath id="clip1">
<rect width="57.08" height="57.08" fill="white" transform="translate(1)"/>
</clipPath>
</defs>
</svg>
