<svg width="20" height="20" viewBox="0 0 20 20" fill="none" xmlns="http://www.w3.org/2000/svg">
<path d="M16.1377 5.58203H3.86231C3.49084 5.58203 3.1897 5.88314 3.1897 6.25458V16.7614C3.1897 18.5473 4.64267 20.0002 6.42842 20.0002H13.5714C15.3572 20.0002 16.8102 18.5473 16.8102 16.7614V6.25458C16.8102 5.88318 16.5092 5.58203 16.1377 5.58203ZM8.38313 15.9493C8.38313 16.4056 8.01319 16.7756 7.55679 16.7756C7.10055 16.7756 6.73045 16.4056 6.73045 15.9493V9.63288C6.73045 9.17651 7.10048 8.80661 7.55679 8.80661C8.01316 8.80661 8.38313 9.17654 8.38313 9.63288V15.9493ZM13.2694 15.9493C13.2694 16.4056 12.8995 16.7756 12.4431 16.7756C11.9869 16.7756 11.6168 16.4056 11.6168 15.9493V9.63288C11.6168 9.17651 11.9868 8.80661 12.4431 8.80661C12.8995 8.80661 13.2694 9.17654 13.2694 9.63288V15.9493Z" fill="#80868F"/>
<path d="M15.4639 1.04647H12.5341V0.792386C12.5341 0.355458 12.1787 0 11.7418 0H8.2584C7.82147 0 7.46601 0.355458 7.46601 0.792386V1.04647H4.53614C3.41424 1.04647 2.50146 1.95918 2.50146 3.08111V4.38582C2.50146 4.61915 2.69062 4.80833 2.92405 4.80833H17.0761C17.3094 4.80833 17.4986 4.61915 17.4986 4.38582V3.08111C17.4986 1.95922 16.5859 1.04647 15.4639 1.04647Z" fill="#80868F"/>
</svg>
