<svg width="50" height="50" viewBox="0 0 50 50" fill="none" xmlns="http://www.w3.org/2000/svg">
<circle cx="25" cy="25.0001" r="22.9362" stroke="white" stroke-width="2"/>
<path d="M25.2565 38.032C25.1702 38.032 25.0838 38.032 24.997 38.0316C22.954 38.0366 21.0663 37.9847 19.2305 37.8729C17.5474 37.7705 16.0111 37.1889 14.7873 36.191C13.6066 35.2282 12.8002 33.9263 12.3908 32.322C12.0344 30.9253 12.0155 29.5542 11.9974 28.2281C11.9843 27.2765 11.9708 26.1491 11.968 25.0025C11.9708 23.8511 11.9843 22.7237 11.9974 21.7721C12.0155 20.4462 12.0344 19.0751 12.3908 17.6782C12.8002 16.0739 13.6066 14.772 14.7873 13.8092C16.0111 12.8113 17.5474 12.2297 19.2307 12.1273C21.0665 12.0157 22.9545 11.9636 25.0019 11.9686C27.0455 11.9642 28.9326 12.0157 30.7684 12.1273C32.4515 12.2297 33.9878 12.8113 35.2115 13.8092C36.3925 14.772 37.1987 16.0739 37.6081 17.6782C37.9644 19.0749 37.9833 20.4462 38.0014 21.7721C38.0146 22.7237 38.0283 23.8511 38.0309 24.9977V25.0025C38.0283 26.1491 38.0146 27.2765 38.0014 28.2281C37.9833 29.554 37.9646 30.9251 37.6081 32.322C37.1987 33.9263 36.3925 35.2282 35.2115 36.191C33.9878 37.1889 32.4515 37.7705 30.7684 37.8729C29.0104 37.9799 27.2044 38.032 25.2565 38.032ZM24.997 35.9954C27.0067 36.0002 28.8521 35.9494 30.6447 35.8405C31.9174 35.7631 33.0208 35.3501 33.9248 34.613C34.7603 33.9315 35.3358 32.9913 35.6351 31.8185C35.9318 30.6558 35.9489 29.4074 35.9654 28.2002C35.9783 27.2551 35.9918 26.1355 35.9946 25.0001C35.9918 23.8645 35.9783 22.7451 35.9654 21.8C35.9489 20.5928 35.9318 19.3444 35.6351 18.1815C35.3358 17.0087 34.7603 16.0685 33.9248 15.387C33.0208 14.6501 31.9174 14.2371 30.6447 14.1597C28.8521 14.0506 27.0067 14.0002 25.0017 14.0046C22.9923 13.9999 21.1468 14.0506 19.3541 14.1597C18.0815 14.2371 16.9781 14.6501 16.0741 15.387C15.2385 16.0685 14.663 17.0087 14.3638 18.1815C14.0671 19.3444 14.05 20.5926 14.0335 21.8C14.0206 22.7459 14.007 23.8661 14.0043 25.0025C14.007 26.134 14.0206 27.2543 14.0335 28.2002C14.05 29.4074 14.0671 30.6558 14.3638 31.8185C14.663 32.9913 15.2385 33.9315 16.0741 34.613C16.9781 35.3499 18.0815 35.7629 19.3541 35.8403C21.1468 35.9494 22.9927 36.0003 24.997 35.9954ZM24.9484 31.3633C21.4399 31.3633 18.5852 28.5088 18.5852 25.0001C18.5852 21.4914 21.4399 18.6369 24.9484 18.6369C28.4572 18.6369 31.3117 21.4914 31.3117 25.0001C31.3117 28.5088 28.4572 31.3633 24.9484 31.3633ZM24.9484 20.6731C22.5626 20.6731 20.6214 22.6143 20.6214 25.0001C20.6214 27.3859 22.5626 29.3271 24.9484 29.3271C27.3344 29.3271 29.2754 27.3859 29.2754 25.0001C29.2754 22.6143 27.3344 20.6731 24.9484 20.6731ZM32.0244 16.6006C31.181 16.6006 30.4972 17.2843 30.4972 18.1278C30.4972 18.9713 31.181 19.655 32.0244 19.655C32.8679 19.655 33.5515 18.9713 33.5515 18.1278C33.5515 17.2843 32.8679 16.6006 32.0244 16.6006Z" fill="white"/>
</svg>
