<svg width="210" height="47" viewBox="0 0 210 47" fill="none" xmlns="http://www.w3.org/2000/svg">
<path d="M70.2508 34.4501C68.0649 34.4501 66.0833 33.9821 64.3059 33.046C62.549 32.0895 61.1598 30.7769 60.1384 29.1082C59.1373 27.4192 58.6368 25.5165 58.6368 23.4001C58.6368 21.2837 59.1373 19.3912 60.1384 17.7225C61.1598 16.0334 62.549 14.7209 64.3059 13.7848C66.0833 12.8283 68.0751 12.3501 70.2815 12.3501C72.1405 12.3501 73.8157 12.6757 75.307 13.3269C76.8188 13.9781 78.0854 14.9142 79.1069 16.1352L75.9199 19.0656C74.4694 17.3969 72.6717 16.5625 70.5266 16.5625C69.1987 16.5625 68.0138 16.8576 66.9719 17.4478C65.93 18.0175 65.1129 18.8214 64.5204 19.8592C63.9484 20.8971 63.6624 22.0774 63.6624 23.4001C63.6624 24.7228 63.9484 25.9031 64.5204 26.941C65.1129 27.9788 65.93 28.7928 66.9719 29.383C68.0138 29.9528 69.1987 30.2377 70.5266 30.2377C72.6717 30.2377 74.4694 29.3931 75.9199 27.7041L79.1069 30.6345C78.0854 31.8758 76.8188 32.8221 75.307 33.4733C73.7953 34.1245 72.1099 34.4501 70.2508 34.4501Z" fill="white"/>
<path d="M102.133 12.7164V34.0838H97.1683V25.3232H87.4235V34.0838H82.4593V12.7164H87.4235V21.1413H97.1683V12.7164H102.133Z" fill="white"/>
<path d="M120.875 34.0838L116.738 28.1315H112.172V34.0838H107.208V12.7164H116.493C118.393 12.7164 120.037 13.0318 121.426 13.6627C122.836 14.2935 123.919 15.1889 124.675 16.3489C125.431 17.5088 125.809 18.8824 125.809 20.4697C125.809 22.057 125.42 23.4306 124.644 24.5906C123.888 25.7302 122.805 26.6052 121.396 27.2157L126.207 34.0838H120.875ZM120.783 20.4697C120.783 19.2691 120.395 18.3533 119.618 17.7225C118.842 17.0713 117.708 16.7457 116.217 16.7457H112.172V24.1937H116.217C117.708 24.1937 118.842 23.8681 119.618 23.217C120.395 22.5658 120.783 21.65 120.783 20.4697Z" fill="white"/>
<path d="M133.886 16.7457H127.022V12.7164H145.714V16.7457H138.85V34.0838H133.886V16.7457Z" fill="white"/>
<path d="M162.788 28.3757H150.837L148.263 34.0838H145.903L155.709 12.7164H157.946L167.752 34.0838H165.362L162.788 28.3757ZM161.961 26.5442L156.812 15.0668L151.664 26.5442H161.961Z" fill="white"/>
<path d="M179.329 12.7164C182.067 12.7164 184.212 13.3676 185.765 14.67C187.317 15.9724 188.093 17.7632 188.093 20.0424C188.093 22.3216 187.317 24.1123 185.765 25.4147C184.212 26.6968 182.067 27.3378 179.329 27.3378H173.568V34.0838H171.301V12.7164H179.329ZM179.268 25.3537C181.393 25.3537 183.017 24.8958 184.14 23.9801C185.264 23.044 185.826 21.7314 185.826 20.0424C185.826 18.3126 185.264 16.9899 184.14 16.0741C183.017 15.138 181.393 14.67 179.268 14.67H173.568V25.3537H179.268Z" fill="white"/>
<path d="M201.025 12.7164C203.763 12.7164 205.908 13.3676 207.461 14.67C209.013 15.9724 209.79 17.7632 209.79 20.0424C209.79 22.3216 209.013 24.1123 207.461 25.4147C205.908 26.6968 203.763 27.3378 201.025 27.3378H195.264V34.0838H192.997V12.7164H201.025ZM200.964 25.3537C203.089 25.3537 204.713 24.8958 205.836 23.9801C206.96 23.044 207.522 21.7314 207.522 20.0424C207.522 18.3126 206.96 16.9899 205.836 16.0741C204.713 15.138 203.089 14.67 200.964 14.67H195.264V25.3537H200.964Z" fill="white"/>
<path fill-rule="evenodd" clip-rule="evenodd" d="M12.236 40.373C15.3336 42.0546 18.8426 42.8955 22.763 42.8955C26.2478 42.8955 29.3454 42.1988 32.0558 40.8054C34.8146 39.364 36.9442 37.3219 38.4446 34.6793L33.1448 31.364C31.9348 33.1898 30.4344 34.5592 28.6436 35.4721C26.8528 36.385 24.8684 36.8414 22.6904 36.8414C20.1736 36.8414 17.8988 36.2889 15.866 35.1838C13.8816 34.0787 12.3086 32.5171 11.147 30.4991C10.0338 28.433 9.47724 26.0547 9.47724 23.364C9.47724 20.7213 10.0338 18.391 11.147 16.373C12.3086 14.3069 13.8816 12.7213 15.866 11.6162C17.8988 10.5111 20.1736 9.95859 22.6904 9.95859C24.8684 9.95859 26.8528 10.415 28.6436 11.328C30.4344 12.2409 31.9348 13.6102 33.1448 15.4361L38.4446 12.0487C36.9442 9.40603 34.8146 7.38802 32.0558 5.99463C29.3454 4.60124 26.2478 3.90454 22.763 3.90454C18.8426 3.90454 15.3336 4.74538 12.236 6.42706C9.18684 8.06069 6.79105 10.367 5.04865 13.346C3.30626 16.2769 2.43506 19.6162 2.43506 23.364C2.43506 27.1117 3.30626 30.4751 5.04865 33.454C6.79105 36.385 9.18684 38.6913 12.236 40.373ZM19.7349 27.1465C19.9278 26.4539 19.8711 25.7158 19.5746 25.0606L23.1979 21.4458C23.5959 21.6258 24.0278 21.7189 24.4647 21.7189C24.9017 21.7189 25.3335 21.6258 25.7315 21.4458L29.3548 25.0606C29.1432 25.5284 29.0525 26.0416 29.091 26.5533C29.1294 27.0651 29.2958 27.559 29.5748 27.9901C29.8539 28.4212 30.2368 28.7757 30.6885 29.0211C31.1402 29.2665 31.6464 29.3951 32.1608 29.3951C32.6752 29.3951 33.1813 29.2665 33.6331 29.0211C34.0848 28.7757 34.4677 28.4212 34.7468 27.9901C35.0258 27.559 35.1922 27.0651 35.2306 26.5533C35.2691 26.0416 35.1783 25.5284 34.9668 25.0606L40.1293 19.9102C40.786 20.2059 41.5259 20.2625 42.2201 20.07C42.9142 19.8776 43.5188 19.4483 43.9284 18.857C44.338 18.2656 44.5268 17.5497 44.4618 16.8338C44.3968 16.1179 44.0821 15.4475 43.5727 14.9392C43.0632 14.4309 42.3912 14.117 41.6736 14.0522C40.9561 13.9873 40.2384 14.1756 39.6457 14.5843C39.053 14.993 38.6227 15.5961 38.4298 16.2887C38.2369 16.9812 38.2937 17.7194 38.5901 18.3745L33.4276 23.525C33.0296 23.345 32.5977 23.2519 32.1608 23.2519C31.7239 23.2519 31.292 23.345 30.894 23.525L27.2707 19.9102C27.4823 19.4424 27.573 18.9292 27.5345 18.4175C27.4961 17.9057 27.3298 17.4118 27.0507 16.9807C26.7716 16.5496 26.3887 16.1951 25.937 15.9497C25.4853 15.7043 24.9791 15.5757 24.4647 15.5757C23.9503 15.5757 23.4442 15.7043 22.9924 15.9497C22.5407 16.1951 22.1578 16.5496 21.8787 16.9807C21.5997 17.4118 21.4333 17.9057 21.3949 18.4175C21.3565 18.9292 21.4472 19.4424 21.6587 19.9102L18.0354 23.525C17.3787 23.2293 16.6389 23.1727 15.9447 23.3651C15.2505 23.5576 14.6459 23.9868 14.2363 24.5782C13.8267 25.1695 13.6379 25.8855 13.7029 26.6014C13.768 27.3172 14.0826 27.9877 14.592 28.496C15.1015 29.0042 15.7735 29.3181 16.4911 29.383C17.2086 29.4478 17.9263 29.2595 18.519 28.8509C19.1117 28.4422 19.542 27.8391 19.7349 27.1465Z" fill="#20B18D"/>
</svg>
