<svg width="24" height="24" viewBox="0 0 24 24" fill="none" xmlns="http://www.w3.org/2000/svg">
<path d="M13.1477 23.9327C17.9621 23.3934 21.8204 19.5448 22.3695 14.7305C23.0902 8.43549 18.1974 3.07692 12.0642 3.00828V0.184364C12.0642 0.0274802 11.8681 -0.0558645 11.7357 0.0421881L5.92121 4.31238C5.82316 4.38592 5.82316 4.52809 5.92121 4.60163L11.7357 8.87182C11.8681 8.96987 12.0642 8.88163 12.0642 8.72965V5.91063C16.3736 5.97927 19.8251 9.64644 19.5309 14.0294C19.2809 17.7995 16.2069 20.8587 12.4368 21.099C8.44116 21.3539 5.04364 18.5006 4.43571 14.7256C4.32295 14.0245 3.71012 13.5146 3.00415 13.5146C2.12658 13.5146 1.44021 14.2941 1.57748 15.1619C2.43054 20.5401 7.3969 24.5749 13.1477 23.9327Z" fill="#20B18D"/>
</svg>
