<svg width="32" height="32" viewBox="0 0 32 32" fill="none" xmlns="http://www.w3.org/2000/svg">
<g clip-path="url(#clip0)">
<path d="M17.0041 32H14.9958C13.3715 32 12.0499 30.6785 12.0499 29.0542V28.3748C11.3594 28.1541 10.6884 27.8756 10.0439 27.5421L9.56238 28.0236C8.39619 29.1912 6.52813 29.1569 5.39581 28.0231L3.97638 26.6038C2.84206 25.4707 2.80944 23.6032 3.97675 22.4372L4.45787 21.9561C4.12431 21.3115 3.84587 20.6407 3.62519 19.95H2.94581C1.32156 19.95 0 18.6285 0 17.0042V14.9958C0 13.3715 1.32156 12.05 2.94587 12.05H3.62525C3.84594 11.3594 4.12438 10.6885 4.45794 10.0439L3.97644 9.5625C2.80981 8.39713 2.842 6.5295 3.97681 5.39594L5.39638 3.97644C6.53131 2.83994 8.39894 2.81156 9.56287 3.97681L10.0439 4.45787C10.6885 4.12437 11.3594 3.84587 12.05 3.62519V2.94581C12.05 1.3215 13.3715 0 14.9959 0H17.0042C18.6285 0 19.95 1.3215 19.95 2.94581V3.62525C20.6406 3.84588 21.3115 4.12438 21.9561 4.45794L22.4376 3.97644C23.6038 2.80881 25.4718 2.84306 26.6041 3.97688L28.0236 5.39625C29.1579 6.52931 29.1905 8.39675 28.0232 9.56281L27.5421 10.0439C27.8756 10.6885 28.1541 11.3593 28.3748 12.05H29.0541C30.6784 12.05 32 13.3715 32 14.9958V17.0042C32 18.6285 30.6784 19.95 29.0541 19.95H28.3748C28.1541 20.6406 27.8756 21.3115 27.5421 21.9561L28.0236 22.4376C29.1902 23.6029 29.158 25.4706 28.0232 26.6041L26.6036 28.0236C25.4687 29.1601 23.6011 29.1885 22.4371 28.0233L21.9561 27.5422C21.3115 27.8757 20.6406 28.1542 19.95 28.3749V29.0543C19.95 30.6785 18.6285 32 17.0041 32V32ZM10.3573 25.5731C11.2527 26.1027 12.2165 26.5028 13.2218 26.7622C13.6358 26.869 13.925 27.2424 13.925 27.6699V29.0542C13.925 29.6446 14.4054 30.125 14.9959 30.125H17.0042C17.5946 30.125 18.0751 29.6446 18.0751 29.0542V27.6699C18.0751 27.2424 18.3643 26.869 18.7783 26.7622C19.7836 26.5028 20.7473 26.1027 21.6427 25.5731C22.0112 25.3553 22.4803 25.4145 22.7829 25.7172L23.7634 26.6978C24.1862 27.121 24.8651 27.1112 25.2774 26.6982L26.6979 25.2778C27.1092 24.8669 27.123 24.1879 26.6982 23.7638L25.7173 22.7828C25.4147 22.4802 25.3554 22.0111 25.5732 21.6427C26.1028 20.7473 26.5028 19.7836 26.7623 18.7782C26.8691 18.3642 27.2425 18.0751 27.67 18.0751H29.0542C29.6446 18.0751 30.1251 17.5947 30.1251 17.0042V14.9959C30.1251 14.4054 29.6446 13.9251 29.0542 13.9251H27.67C27.2424 13.9251 26.8691 13.6358 26.7623 13.2219C26.5028 12.2166 26.1027 11.2528 25.5732 10.3574C25.3554 9.98906 25.4147 9.51994 25.7173 9.21731L26.6979 8.23675C27.1217 7.81337 27.1107 7.13463 26.6982 6.72269L25.2779 5.30237C24.8662 4.89012 24.1872 4.87806 23.7639 5.302L22.783 6.28294C22.4804 6.58563 22.0111 6.64488 21.6428 6.427C20.7474 5.89744 19.7836 5.49737 18.7784 5.23794C18.3644 5.13112 18.0751 4.75775 18.0751 4.33019V2.94581C18.0751 2.35537 17.5947 1.875 17.0042 1.875H14.9959C14.4055 1.875 13.9251 2.35537 13.9251 2.94581V4.33006C13.9251 4.75762 13.6358 5.131 13.2218 5.23781C12.2166 5.49725 11.2528 5.89731 10.3574 6.42688C9.98888 6.64469 9.51981 6.58544 9.21719 6.28281L8.23669 5.30225C7.81394 4.879 7.135 4.88881 6.72269 5.30181L5.30225 6.72219C4.89087 7.13306 4.87713 7.812 5.30188 8.23625L6.28281 9.21719C6.58544 9.51981 6.64469 9.98894 6.42688 10.3573C5.89731 11.2527 5.49731 12.2164 5.23787 13.2218C5.131 13.6358 4.75762 13.9249 4.33012 13.9249H2.94587C2.35544 13.925 1.875 14.4054 1.875 14.9958V17.0042C1.875 17.5946 2.35544 18.075 2.94587 18.075H4.33006C4.75762 18.075 5.13094 18.3642 5.23781 18.7782C5.49725 19.7835 5.89731 20.7473 6.42681 21.6426C6.64463 22.011 6.58538 22.4801 6.28275 22.7827L5.30219 23.7633C4.87831 24.1867 4.88938 24.8654 5.30181 25.2774L6.72213 26.6977C7.13381 27.1099 7.81281 27.122 8.23619 26.6981L9.21706 25.7171C9.44006 25.4942 9.904 25.305 10.3573 25.5731V25.5731Z" fill="#20B18D"/>
<path d="M16 22.9625C12.1608 22.9625 9.03748 19.8391 9.03748 16C9.03748 12.1608 12.1608 9.03748 16 9.03748C19.8392 9.03748 22.9625 12.1608 22.9625 16C22.9625 19.8391 19.8392 22.9625 16 22.9625V22.9625ZM16 10.9125C13.1947 10.9125 10.9125 13.1947 10.9125 16C10.9125 18.8052 13.1947 21.0875 16 21.0875C18.8052 21.0875 21.0875 18.8052 21.0875 16C21.0875 13.1947 18.8053 10.9125 16 10.9125V10.9125Z" fill="#20B18D"/>
</g>
<defs>
<clipPath id="clip0">
<rect width="32" height="32" fill="white"/>
</clipPath>
</defs>
</svg>
