<svg width="50" height="50" viewBox="0 0 50 50" fill="none" xmlns="http://www.w3.org/2000/svg">
<circle cx="25" cy="25.0001" r="22.9362" stroke="white" stroke-width="2"/>
<path d="M36.2549 13.9723C35.9291 13.5603 35.4413 13.3335 34.881 13.3335C34.5764 13.3335 34.2537 13.3998 33.9221 13.5309L11.3493 22.4424C10.1514 22.9152 9.99007 23.6247 10.0004 24.0055C10.0108 24.3864 10.2108 25.0854 11.4327 25.4875C11.4401 25.4898 11.4474 25.4921 11.4547 25.4942L16.1369 26.88L18.6691 34.3685C19.0143 35.3894 19.7892 36.0236 20.6918 36.0236C21.2608 36.0236 21.8205 35.777 22.3104 35.3107L25.2065 32.5529L29.4071 36.051C29.4076 36.0514 29.4082 36.0516 29.4086 36.052L29.4484 36.0853C29.4521 36.0882 29.456 36.0914 29.4596 36.0943C29.9266 36.4688 30.4362 36.6666 30.934 36.6668H30.9342C31.9069 36.6668 32.6815 35.9222 32.9071 34.77L36.6056 15.8826C36.7541 15.1245 36.6296 14.4462 36.2549 13.9723ZM17.7033 26.6168L26.7367 21.844L21.1119 28.0252C21.0197 28.1265 20.9544 28.2504 20.9223 28.3853L19.8377 32.9289L17.7033 26.6168ZM21.2518 34.1219C21.2144 34.1575 21.1768 34.1892 21.1391 34.2185L22.1454 30.0035L23.9758 31.528L21.2518 34.1219ZM35.0742 15.5617L31.3757 34.4493C31.3401 34.63 31.2264 35.0507 30.934 35.0507C30.7896 35.0507 30.6081 34.9692 30.4224 34.8213L25.6624 30.8576C25.6618 30.857 25.661 30.8563 25.6602 30.8559L22.828 28.4972L30.9621 19.5583C31.2225 19.2721 31.2461 18.8339 31.0181 18.5195C30.7898 18.2051 30.3762 18.1063 30.0378 18.2851L16.6594 25.3537L11.9135 23.9494L34.4794 15.0406C34.67 14.9652 34.803 14.9495 34.881 14.9495C34.9288 14.9495 35.0138 14.9553 35.0454 14.9955C35.0869 15.0479 35.1398 15.2266 35.0742 15.5617Z" fill="white"/>
</svg>
