<svg width="70" height="70" viewBox="0 0 70 70" fill="none" xmlns="http://www.w3.org/2000/svg">
<path d="M54.6955 60.467H43.3817H40.3351H39.6772V45.2913H44.6404C45.8991 45.2913 46.6428 43.8609 45.8991 42.8311L36.2444 29.4719C35.6293 28.6137 34.3564 28.6137 33.7413 29.4719L24.0866 42.8311C23.3429 43.8609 24.0723 45.2913 25.3453 45.2913H30.3085V60.467H29.6506H26.604H13.4879C5.97875 60.0522 0 53.0293 0 45.42C0 40.1707 2.84634 35.5937 7.06579 33.1192C6.67961 32.0751 6.47936 30.9594 6.47936 29.7866C6.47936 24.4229 10.8132 20.089 16.177 20.089C17.3355 20.089 18.4512 20.2892 19.4953 20.6754C22.5991 14.0959 29.293 9.5332 37.074 9.5332C47.1434 9.54751 55.4393 17.2569 56.3833 27.0833C64.1214 28.4135 70 35.5794 70 43.6893C70 52.3571 63.2489 59.8663 54.6955 60.467Z" fill="#525A68"/>
</svg>
