<svg width="24" height="24" viewBox="0 0 24 24" fill="none" xmlns="http://www.w3.org/2000/svg">
<g clip-path="url(#clip0)">
<path d="M19 0.999986L19 3.663C17.559 4.09599 16.5 5.42002 16.5 6.99999C16.5 8.57995 17.559 9.903 19 10.337L19 23C19 23.552 19.448 24 20 24C20.552 24 21 23.552 21 23L21 10.337C22.441 9.90403 23.5 8.58 23.5 7.00003C23.5 5.42006 22.441 4.09702 21 3.66305L21 1.00003C21 0.447049 20.552 4.89371e-05 20 4.89612e-05C19.448 4.89854e-05 19 0.447002 19 0.999986ZM21.5 6.99999C21.5 7.827 20.827 8.49999 20 8.49999C19.173 8.49999 18.5 7.827 18.5 6.99999C18.5 6.17297 19.173 5.49999 20 5.49999C20.827 5.49999 21.5 6.17302 21.5 6.99999Z" fill="#20B18D"/>
<path d="M2.99992 0.999985L2.99992 3.663C1.55894 4.09702 0.499938 5.42002 0.499938 6.99998C0.499938 8.57995 1.55894 9.903 2.99992 10.337L2.99992 23C2.99992 23.552 3.44791 24 3.99991 24C4.55191 24 4.99989 23.552 4.99989 23L4.99989 10.337C6.44093 9.903 7.49993 8.58 7.49993 6.99998C7.49993 5.41997 6.44093 4.09697 4.99994 3.663L4.99994 0.999985C4.99994 0.447 4.55196 -1.77119e-07 3.99996 -1.52991e-07C3.44796 -1.28862e-07 2.99992 0.447 2.99992 0.999985ZM5.49991 6.99998C5.49991 7.827 4.82693 8.49998 3.99991 8.49998C3.17289 8.49998 2.49991 7.827 2.49991 6.99998C2.49991 6.17297 3.17289 5.49998 3.99991 5.49998C4.82692 5.49998 5.49991 6.17302 5.49991 6.99998Z" fill="#20B18D"/>
<path d="M11.0003 0.999986L11.0003 13.663C9.55931 14.097 8.5003 15.42 8.5003 17C8.5003 18.5799 9.55931 19.903 11.0003 20.337L11.0003 23C11.0003 23.552 11.4483 24 12.0003 24C12.5523 24 13.0003 23.552 13.0003 23L13.0003 20.337C14.4412 19.903 15.5002 18.58 15.5002 17C15.5002 15.42 14.4412 14.097 13.0003 13.663L13.0003 1.00003C13.0003 0.447049 12.5523 4.89371e-05 12.0003 4.89612e-05C11.4483 2.11037e-06 11.0003 0.447002 11.0003 0.999986ZM13.5003 17C13.5003 17.827 12.8273 18.5 12.0003 18.5C11.1733 18.5 10.5003 17.827 10.5003 17C10.5003 16.173 11.1733 15.5 12.0003 15.5C12.8273 15.5 13.5003 16.173 13.5003 17Z" fill="#20B18D"/>
</g>
<defs>
<clipPath id="clip0">
<rect width="24" height="24" fill="white" transform="translate(0 24) rotate(-90)"/>
</clipPath>
</defs>
</svg>
