<svg width="50" height="50" viewBox="0 0 50 50" fill="none" xmlns="http://www.w3.org/2000/svg">
<circle cx="24.9999" cy="25.0001" r="22.9362" stroke="white" stroke-width="2"/>
<path d="M15.8953 24.5669C15.8953 24.3787 15.9324 24.1924 16.0046 24.0186C16.0768 23.8448 16.1827 23.687 16.316 23.5542C16.4494 23.4214 16.6077 23.3163 16.7818 23.2449C16.956 23.1734 17.1425 23.1371 17.3307 23.138L19.7104 23.1458C20.0898 23.1458 20.4537 23.2965 20.722 23.5648C20.9903 23.8331 21.141 24.197 21.141 24.5765V33.5749C21.4091 33.4955 21.7529 33.4108 22.1295 33.3225C22.3911 33.2609 22.6241 33.1129 22.7909 32.9023C22.9577 32.6917 23.0486 32.4309 23.0486 32.1623V21.0004C23.0486 20.8125 23.0856 20.6265 23.1575 20.4528C23.2294 20.2792 23.3348 20.1215 23.4676 19.9886C23.6005 19.8557 23.7582 19.7503 23.9318 19.6784C24.1054 19.6065 24.2915 19.5694 24.4794 19.5694H26.8638C27.2432 19.5695 27.6071 19.7202 27.8754 19.9885C28.1437 20.2568 28.2944 20.6207 28.2945 21.0001V31.3601C28.2945 31.3601 28.8912 31.1185 29.4729 30.873C29.6889 30.7816 29.8732 30.6287 30.0029 30.4332C30.1325 30.2378 30.2017 30.0085 30.2019 29.774V17.4231C30.2019 17.2353 30.2389 17.0492 30.3108 16.8757C30.3827 16.7021 30.4881 16.5444 30.6209 16.4115C30.7537 16.2787 30.9114 16.1733 31.085 16.1014C31.2586 16.0295 31.4446 15.9925 31.6325 15.9925H34.0169C34.3963 15.9925 34.7602 16.1432 35.0286 16.4115C35.2969 16.6798 35.4476 17.0437 35.4477 17.4231V27.5934C37.5149 26.0953 39.61 24.2932 41.2726 22.1265C41.5138 21.812 41.6734 21.4427 41.7372 21.0515C41.8009 20.6603 41.7669 20.2594 41.6381 19.8845C40.5131 16.6061 38.403 13.7551 35.5963 11.7215C32.7895 9.68785 29.4231 8.57077 25.9573 8.52301C16.6117 8.39747 8.88808 16.0263 8.889 25.3731C8.87982 28.3307 9.65175 31.2383 11.1267 33.8019C11.3302 34.1526 11.6294 34.4379 11.9893 34.6243C12.3493 34.8108 12.755 34.8907 13.1587 34.8546C13.6098 34.8149 14.1714 34.7588 14.8391 34.6804C15.1297 34.6473 15.398 34.5085 15.5929 34.2904C15.7877 34.0723 15.8956 33.7902 15.8959 33.4977V24.5669" fill="white"/>
<path d="M15.8435 38.9987C18.3569 40.8271 21.3271 41.9246 24.4255 42.1697C27.5239 42.4149 30.6297 41.7981 33.3993 40.3877C36.169 38.9773 38.4945 36.8282 40.1185 34.1782C41.7426 31.5281 42.6019 28.4805 42.6014 25.3724C42.6014 24.9844 42.5834 24.6008 42.5574 24.2192C36.4017 33.3997 25.0358 37.6916 15.8434 38.999" fill="#F1B90C"/>
</svg>
