<svg width="30" height="30" viewBox="0 0 30 30" fill="none" xmlns="http://www.w3.org/2000/svg">
<path d="M15 30C23.2843 30 30 23.2843 30 15C30 6.71573 23.2843 0 15 0C6.71573 0 0 6.71573 0 15C0 23.2843 6.71573 30 15 30Z" fill="#20B18D"/>
<path d="M14.5236 21.702C13.2028 21.702 12.0206 21.4174 10.977 20.8483C9.94966 20.2791 9.14249 19.4986 8.55547 18.5066C7.96844 17.4984 7.67493 16.3601 7.67493 15.0917C7.67493 13.8233 7.96844 12.6931 8.55547 11.7011C9.14249 10.6929 9.94966 9.91236 10.977 9.35947C12.0206 8.79032 13.2028 8.50574 14.5236 8.50574C15.6976 8.50574 16.7412 8.74153 17.6544 9.21312C18.5838 9.6847 19.3013 10.3677 19.8068 11.2621L18.0213 12.4085C17.6136 11.7906 17.1081 11.3271 16.5048 11.0182C15.9015 10.7092 15.2329 10.5547 14.4991 10.5547C13.6512 10.5547 12.8848 10.7417 12.1999 11.1157C11.5314 11.4897 11.0014 12.0264 10.6101 12.7256C10.235 13.4086 10.0475 14.1973 10.0475 15.0917C10.0475 16.0023 10.235 16.8073 10.6101 17.5065C11.0014 18.1895 11.5314 18.718 12.1999 19.092C12.8848 19.466 13.6512 19.6531 14.4991 19.6531C15.2329 19.6531 15.9015 19.4986 16.5048 19.1896C17.1081 18.8806 17.6136 18.4172 18.0213 17.7992L19.8068 18.9213C19.3013 19.8157 18.5838 20.5068 17.6544 20.9946C16.7412 21.4662 15.6976 21.702 14.5236 21.702Z" fill="white"/>
<path fill-rule="evenodd" clip-rule="evenodd" d="M13.6277 15.3128C13.7378 15.5567 13.7588 15.8315 13.6872 16.0894C13.6155 16.3472 13.4557 16.5718 13.2356 16.7239C13.0154 16.876 12.7489 16.9461 12.4824 16.922C12.2159 16.8979 11.9663 16.781 11.777 16.5918C11.5878 16.4025 11.4709 16.1529 11.4468 15.8864C11.4227 15.6199 11.4928 15.3534 11.6449 15.1332C11.797 14.9131 12.0216 14.7533 12.2794 14.6816C12.5373 14.61 12.8121 14.631 13.056 14.7411L14.4017 13.3954C14.3232 13.2212 14.2895 13.0302 14.3037 12.8397C14.318 12.6491 14.3798 12.4652 14.4835 12.3048C14.5871 12.1443 14.7293 12.0123 14.8971 11.9209C15.0649 11.8296 15.2529 11.7817 15.4439 11.7817C15.635 11.7817 15.823 11.8296 15.9908 11.9209C16.1586 12.0123 16.3008 12.1443 16.4044 12.3048C16.5081 12.4652 16.5699 12.6491 16.5841 12.8397C16.5984 13.0302 16.5647 13.2212 16.4861 13.3954L17.8319 14.7411C17.9797 14.6741 18.1401 14.6395 18.3024 14.6395C18.4647 14.6395 18.6251 14.6741 18.7729 14.7411L20.6904 12.8237C20.5803 12.5798 20.5592 12.305 20.6309 12.0471C20.7025 11.7893 20.8623 11.5647 21.0825 11.4126C21.3026 11.2605 21.5692 11.1904 21.8357 11.2145C22.1022 11.2386 22.3518 11.3555 22.541 11.5447C22.7303 11.734 22.8471 11.9836 22.8713 12.2501C22.8954 12.5166 22.8253 12.7831 22.6732 13.0033C22.521 13.2234 22.2965 13.3832 22.0386 13.4549C21.7808 13.5265 21.506 13.5055 21.2621 13.3954L19.3446 15.3128C19.4232 15.487 19.4569 15.678 19.4426 15.8685C19.4283 16.0591 19.3666 16.243 19.2629 16.4034C19.1593 16.5639 19.017 16.6959 18.8493 16.7873C18.6815 16.8786 18.4935 16.9265 18.3024 16.9265C18.1114 16.9265 17.9234 16.8786 17.7556 16.7873C17.5878 16.6959 17.4456 16.5639 17.3419 16.4034C17.2383 16.243 17.1765 16.0591 17.1622 15.8685C17.148 15.678 17.1816 15.487 17.2602 15.3128L15.9145 13.9671C15.7666 14.0341 15.6062 14.0687 15.4439 14.0687C15.2817 14.0687 15.1212 14.0341 14.9734 13.9671L13.6277 15.3128V15.3128Z" fill="white"/>
</svg>
