<svg width="78" height="78" viewBox="0 0 78 78" fill="none" xmlns="http://www.w3.org/2000/svg">
<g clip-path="url(#clip0)">
<path opacity="0.65" d="M66.5811 66.5817C81.8125 51.3502 81.8125 26.6551 66.5811 11.4236C51.3496 -3.80784 26.6545 -3.80784 11.423 11.4236C-3.80851 26.6551 -3.80851 51.3502 11.423 66.5817C26.6545 81.8132 51.3496 81.8132 66.5811 66.5817Z" fill="url(#paint0_radial)"/>
<path d="M61.7639 61.7645C74.3349 49.1935 74.3349 28.8119 61.7639 16.2409C49.1929 3.66989 28.8113 3.66988 16.2403 16.2409C3.66926 28.8119 3.66926 49.1935 16.2403 61.7645C28.8113 74.3355 49.1929 74.3355 61.7639 61.7645Z" fill="url(#paint1_radial)"/>
<path d="M40.0426 64.4332C54.0875 64.4332 65.4731 53.0475 65.4731 39.0027C65.4731 24.9578 54.0875 13.5721 40.0426 13.5721C25.9977 13.5721 14.6121 24.9578 14.6121 39.0027C14.6121 53.0475 25.9977 64.4332 40.0426 64.4332Z" fill="url(#paint2_linear)"/>
<path d="M37.9627 64.4332C52.0076 64.4332 63.3932 53.0475 63.3932 39.0027C63.3932 24.9578 52.0076 13.5721 37.9627 13.5721C23.9178 13.5721 12.5322 24.9578 12.5322 39.0027C12.5322 53.0475 23.9178 64.4332 37.9627 64.4332Z" fill="url(#paint3_linear)"/>
<path d="M37.9628 60.4061C49.7836 60.4061 59.3662 50.8235 59.3662 39.0027C59.3662 27.1819 49.7836 17.5992 37.9628 17.5992C26.142 17.5992 16.5593 27.1819 16.5593 39.0027C16.5593 50.8235 26.142 60.4061 37.9628 60.4061Z" fill="url(#paint4_linear)"/>
<path d="M38.2252 50.9042C35.8923 50.9042 33.8043 50.4016 31.961 49.3963C30.1466 48.3911 28.7209 47.0124 27.6841 45.2604C26.6473 43.4796 26.1288 41.4691 26.1288 39.2288C26.1288 36.9885 26.6473 34.9923 27.6841 33.2403C28.7209 31.4595 30.1466 30.0809 31.961 29.1043C33.8043 28.0991 35.8923 27.5964 38.2252 27.5964C40.2988 27.5964 42.1421 28.0129 43.7549 28.8458C45.3966 29.6788 46.6638 30.8851 47.5567 32.4648L44.403 34.4897C43.6829 33.3983 42.7901 32.5797 41.7245 32.034C40.6589 31.4882 39.478 31.2154 38.182 31.2154C36.6843 31.2154 35.3307 31.5457 34.1211 32.2063C32.9402 32.8669 32.0042 33.8147 31.313 35.0498C30.6506 36.2561 30.3194 37.6491 30.3194 39.2288C30.3194 40.8372 30.6506 42.2589 31.313 43.494C32.0042 44.7003 32.9402 45.6338 34.1211 46.2944C35.3307 46.955 36.6843 47.2853 38.182 47.2853C39.478 47.2853 40.6589 47.0124 41.7245 46.4667C42.7901 45.921 43.6829 45.1024 44.403 44.011L47.5567 45.9928C46.6638 47.5725 45.3966 48.7932 43.7549 49.6548C42.1421 50.4878 40.2988 50.9042 38.2252 50.9042Z" fill="white"/>
<path fill-rule="evenodd" clip-rule="evenodd" d="M36.6425 39.6193C36.8369 40.0501 36.8741 40.5355 36.7476 40.9909C36.621 41.4463 36.3388 41.8429 35.9499 42.1116C35.5611 42.3803 35.0903 42.5041 34.6196 42.4615C34.1489 42.4188 33.708 42.2124 33.3738 41.8782C33.0396 41.544 32.8332 41.1031 32.7905 40.6324C32.7479 40.1617 32.8717 39.6909 33.1404 39.3021C33.4091 38.9132 33.8057 38.631 34.2611 38.5044C34.7165 38.3779 35.2019 38.4151 35.6327 38.6096L38.0097 36.2326C37.8709 35.925 37.8114 35.5876 37.8366 35.2511C37.8618 34.9146 37.9709 34.5898 38.154 34.3063C38.3371 34.0229 38.5882 33.7898 38.8846 33.6284C39.1809 33.467 39.513 33.3825 39.8504 33.3825C40.1879 33.3825 40.5199 33.467 40.8163 33.6284C41.1126 33.7898 41.3638 34.0229 41.5469 34.3063C41.73 34.5898 41.8391 34.9146 41.8643 35.2511C41.8895 35.5876 41.83 35.925 41.6912 36.2326L44.0682 38.6096C44.3292 38.4912 44.6126 38.43 44.8992 38.43C45.1858 38.43 45.4692 38.4912 45.7302 38.6096L49.1169 35.2228C48.9225 34.792 48.8853 34.3067 49.0118 33.8513C49.1383 33.3959 49.4206 32.9993 49.8094 32.7306C50.1983 32.4619 50.6691 32.338 51.1398 32.3807C51.6105 32.4233 52.0514 32.6297 52.3856 32.9639C52.7198 33.2982 52.9262 33.739 52.9689 34.2097C53.0115 34.6805 52.8877 35.1513 52.619 35.5401C52.3502 35.9289 51.9537 36.2112 51.4983 36.3377C51.0428 36.4643 50.5575 36.4271 50.1267 36.2326L46.74 39.6193C46.8788 39.9269 46.9383 40.2643 46.9131 40.6008C46.8878 40.9373 46.7787 41.2621 46.5956 41.5456C46.4126 41.8291 46.1614 42.0621 45.865 42.2235C45.5687 42.3849 45.2366 42.4694 44.8992 42.4694C44.5618 42.4694 44.2297 42.3849 43.9334 42.2235C43.637 42.0621 43.3858 41.8291 43.2028 41.5456C43.0197 41.2621 42.9106 40.9373 42.8853 40.6008C42.8601 40.2643 42.9196 39.9269 43.0584 39.6193L40.6815 37.2424C40.4204 37.3607 40.1371 37.422 39.8504 37.422C39.5638 37.422 39.2805 37.3607 39.0194 37.2424L36.6425 39.6193V39.6193Z" fill="white"/>
<path d="M37.9628 60.4061C49.7836 60.4061 59.3662 50.8235 59.3662 39.0027C59.3662 27.1819 49.7836 17.5992 37.9628 17.5992C26.142 17.5992 16.5593 27.1819 16.5593 39.0027C16.5593 50.8235 26.142 60.4061 37.9628 60.4061Z" stroke="#79F2BB" stroke-width="4" stroke-miterlimit="10"/>
</g>
<defs>
<radialGradient id="paint0_radial" cx="0" cy="0" r="1" gradientUnits="userSpaceOnUse" gradientTransform="translate(39.0016 39.0023) scale(48.4575)">
<stop stop-color="#41C89A"/>
<stop offset="0.99" stop-color="#42C99B" stop-opacity="0"/>
</radialGradient>
<radialGradient id="paint1_radial" cx="0" cy="0" r="1" gradientUnits="userSpaceOnUse" gradientTransform="translate(39.0016 39.0023) scale(45.9744)">
<stop stop-color="#55D6A2"/>
<stop offset="0.99" stop-color="#38C297" stop-opacity="0"/>
</radialGradient>
<linearGradient id="paint2_linear" x1="48.0596" y1="39.0027" x2="93.3761" y2="39.0027" gradientUnits="userSpaceOnUse">
<stop stop-color="#20978D"/>
<stop offset="0.99" stop-color="#33BE95"/>
</linearGradient>
<linearGradient id="paint3_linear" x1="57.0051" y1="58.045" x2="17.4877" y2="18.5224" gradientUnits="userSpaceOnUse">
<stop stop-color="#20B18D"/>
<stop offset="0.99" stop-color="#66E2A9"/>
</linearGradient>
<linearGradient id="paint4_linear" x1="2081.14" y1="2307.34" x2="4504.01" y2="4386.9" gradientUnits="userSpaceOnUse">
<stop stop-color="#20B18D"/>
<stop offset="0.99" stop-color="#66E2A9"/>
</linearGradient>
<clipPath id="clip0">
<rect width="78" height="78" fill="white"/>
</clipPath>
</defs>
</svg>
