<svg width="164" height="45" viewBox="0 0 164 45" fill="none" xmlns="http://www.w3.org/2000/svg">
<path d="M20.9898 20.167C21.0995 20.2584 21.1544 20.295 21.2092 20.3315C23.3303 21.2641 24.5555 22.9647 25.2869 25.0858C25.7623 26.4938 26.0366 27.9749 26.384 29.4195C26.512 29.9497 26.6766 30.48 26.9509 30.9737C27.408 31.7783 27.9749 32.0709 28.8708 31.9246C30.1691 31.7417 31.3394 31.1932 32.4365 30.4983C32.5828 30.4069 32.6925 30.3155 32.6925 30.1143C32.8754 27.2252 33.6617 24.4641 34.3565 21.6847C34.5942 20.7155 34.8685 19.7647 35.0879 18.7956C35.2342 18.1556 35.6182 17.7167 36.1668 17.4059C36.8982 17.0036 37.6662 16.8207 38.489 16.8207C39.4947 16.8207 39.897 17.2962 39.7325 18.3019C39.5679 19.271 39.2753 20.2035 39.0193 21.1361C38.3793 23.4218 37.6845 25.6892 37.3919 28.048C37.3188 28.7063 37.2822 29.3646 37.4468 30.0229C37.593 30.6446 37.8308 30.8092 38.4708 30.7543C38.9462 30.7177 39.3485 30.5166 39.7507 30.2972C41.1222 29.5109 42.2559 28.432 43.4627 27.4263C43.6821 27.2435 43.6821 27.0241 43.6638 26.7863C43.5907 25.1041 43.5176 23.4401 43.4627 21.7578C43.4261 20.6241 43.4627 19.4721 43.6456 18.3384C43.7736 17.4607 43.993 17.2596 44.8524 17.1133C45.4375 17.0219 46.0044 16.9122 46.5895 16.8207C47.6501 16.6562 48.2901 17.2779 48.2169 18.3384C48.0341 20.9533 47.8878 23.5498 47.7232 26.1646C47.6684 27.0972 47.6135 28.0298 47.5587 28.9806C47.5587 29.1452 47.3941 29.4012 47.6135 29.456C47.8512 29.5292 47.8512 29.2366 47.9244 29.072C48.8204 26.9692 49.6981 24.8664 50.5758 22.7635C51.2523 21.1544 51.9106 19.5453 52.5872 17.9179C52.7335 17.5704 52.9529 17.3327 53.282 17.1499C54.1232 16.6744 55.0009 16.6562 55.8969 16.967C56.7929 17.2779 57.122 17.8996 56.9574 18.8321C56.8111 19.6367 56.4271 20.3498 56.0797 21.0813C55.5129 22.2698 54.8546 23.4218 54.7449 24.7932C54.5803 26.7681 55.8969 27.92 57.8351 27.4263C58.6214 27.2252 59.3345 26.8412 60.0477 26.4572C60.3037 26.3109 60.322 26.1098 60.3402 25.8538C60.5231 23.4949 61.2179 21.3007 62.6991 19.4173C64.2351 17.4607 66.2282 16.455 68.7882 16.8756C71.9333 17.4059 73.4693 20.7155 71.9333 23.6595C70.763 25.9086 68.8247 27.2983 66.539 28.2492C66.283 28.3589 66.027 28.4503 65.771 28.5418C65.1493 28.7429 65.1493 28.7429 65.5151 29.2549C66.283 30.352 67.2156 30.6263 68.9162 30.1692C71.1653 29.5657 73.0487 28.304 74.8955 26.9509C76.3035 25.9269 76.7058 24.5006 76.9435 22.9281C77.1995 21.2824 77.5469 19.6367 78.1321 18.0641C78.5709 16.8756 79.5949 16.4184 80.7835 16.839C81.204 16.9853 81.2406 17.3327 81.2589 17.6801C81.2772 18.759 81.2589 19.8561 81.2772 20.935C81.2772 21.2458 81.3137 21.575 81.3503 21.9224C81.6612 21.7944 81.6977 21.5567 81.7892 21.3738C82.2646 20.423 82.7217 19.4538 83.3983 18.6127C84.0566 17.7899 84.788 17.0402 85.9034 16.8207C87.4577 16.4916 88.4817 17.4424 88.2622 18.9967C88.0977 20.0938 87.9148 21.1727 87.7685 22.2698C87.6954 22.8549 87.732 23.4401 87.9697 24.0069C88.2622 24.6835 88.7742 24.9761 89.5057 24.9029C90.4017 24.8115 91.2062 24.4458 91.9925 24.0252C92.1753 23.9338 92.2668 23.8058 92.3216 23.6047C94.205 18.0459 96.1982 12.5419 97.9719 6.94654C98.0084 6.83682 98.0267 6.7454 98.0633 6.56254C95.7959 6.76368 93.5468 6.81854 91.4439 7.7511C90.4382 8.18995 89.7982 8.90309 89.7251 10.0916C89.6337 11.4265 88.6462 12.2676 87.2931 12.3225C86.6531 12.3408 85.9948 12.3773 85.3914 12.1031C84.2029 11.5728 83.7274 10.5305 83.9834 9.0128C84.2394 7.45853 85.0806 6.25169 86.3606 5.37398C88.0428 4.22199 89.9628 3.71 91.9193 3.38086C96.4176 2.63115 100.934 2.70429 105.469 2.88715C108.614 3.01515 111.741 3.38086 114.849 3.91114C116.184 4.14885 116.861 5.0997 116.477 6.19683C116.166 7.05625 115.38 7.64139 114.465 7.64139C112.783 7.64139 111.119 7.44025 109.455 7.27568C106.968 7.01968 104.482 6.70882 101.976 6.56254C101.647 6.54426 101.483 6.59911 101.41 6.96482C100.55 12.0482 99.2519 17.0219 97.8804 21.9955C96.893 25.5429 95.9056 29.072 94.9365 32.6194C94.717 33.424 94.3148 34.1006 93.7113 34.6857C93.0531 35.3257 92.3034 35.5085 91.4256 35.2525C90.2919 34.9417 89.7617 34.064 89.9811 32.8389C90.2188 31.4309 90.4748 30.0229 90.8405 28.56C90.2371 28.6332 89.7434 28.8526 89.1948 28.9257C87.22 29.1635 85.7388 28.3406 84.916 26.5303C84.4223 25.4515 84.2577 24.2812 84.0566 23.1109C84.0383 22.9647 84.1114 22.727 83.892 22.6904C83.636 22.6538 83.636 22.9098 83.5812 23.0561C82.5206 26.0183 81.46 28.9806 80.3812 31.9246C80.2166 32.3634 80.0155 32.8023 79.796 33.2229C79.4852 33.808 79.0281 34.192 78.2966 34.1554C77.5286 34.1188 76.9618 33.808 76.5778 33.1314C76.2121 32.4731 76.1572 31.7234 76.1024 30.992C76.0841 30.8457 76.0841 30.6994 76.0841 30.5532C75.8464 30.5166 75.7367 30.6994 75.6087 30.8092C73.6155 32.272 71.5127 33.5154 69.0624 33.9726C66.5573 34.448 64.2533 34.1188 62.3882 32.1989C61.9311 31.7417 61.5471 31.2114 61.3094 30.608C61.1082 30.1326 60.9254 30.1509 60.5048 30.3703C59.2065 31.0652 57.8534 31.5223 56.354 31.5223C54.3609 31.504 52.6055 30.2057 52.3129 28.3589C52.3129 28.304 52.258 28.2675 52.2032 28.1578C51.9655 28.6149 51.7278 29.0172 51.5083 29.4195C50.6489 30.9737 49.7164 32.4549 48.3815 33.6617C47.7415 34.2468 47.0284 34.5028 46.1507 34.2834C45.3461 34.0823 44.8707 33.5154 44.5415 32.8206C44.2855 32.2903 44.1393 31.7052 44.0844 31.12C44.0478 30.6994 43.9564 30.6994 43.6456 30.9372C42.0913 32.1623 40.3724 33.1131 38.489 33.7531C37.1908 34.192 35.8742 34.3931 34.5394 33.8994C34.3017 33.808 34.1554 33.9543 33.9908 34.0457C32.1988 34.9965 30.3154 35.6365 28.304 35.8925C26.256 36.1485 24.7017 35.4354 23.5863 33.7166C22.6172 32.2171 22.1783 30.5349 21.7395 28.8343C21.2824 27.0789 21.0081 25.2686 20.5144 23.5132C20.3132 22.7818 20.0572 22.0687 19.6367 21.447C19.1795 20.7704 18.1372 20.423 17.3875 20.679C17.1864 20.7521 17.2047 20.8801 17.2047 21.0264C17.0035 23.0744 16.7658 25.1224 16.4367 27.1521C15.9978 29.7303 15.4858 32.2903 14.1693 34.5943C13.255 36.1668 12.0482 37.3737 10.1282 37.5931C7.62306 37.9039 5.62994 36.9165 4.02081 35.088C2.35683 33.1863 1.53398 30.9006 1.02199 28.4869C-0.952851 19.2527 3.83796 9.25052 12.2493 4.98999C15.6138 3.28943 19.1795 2.53972 22.9281 2.81401C25.1955 2.97858 27.3349 3.65514 29.2183 5.00827C33.5154 8.08024 33.7531 13.4379 29.7486 16.8939C27.6457 18.7041 25.1589 19.527 22.4709 19.9293C21.9223 20.0756 21.5018 20.1121 20.9898 20.167ZM5.15452 25.2869C5.15452 26.0915 5.19109 26.9143 5.3008 27.7189C5.50194 29.1635 5.84937 30.5714 6.65393 31.8331C7.16592 32.6194 7.80592 33.2777 8.73848 33.552C9.61618 33.808 10.4025 33.7531 11.0242 32.9486C11.5179 32.3086 11.8287 31.5772 12.0482 30.8274C13.0356 27.4995 13.2184 24.0618 13.2916 20.6241C13.2916 20.3315 13.1453 20.2401 12.9259 20.1487C12.2859 19.8378 11.6459 19.5087 11.0973 19.0333C10.4207 18.4481 10.2379 17.7716 10.5122 16.9487C10.6767 16.455 11.0059 16.2356 11.5179 16.3087C12.1396 16.4002 12.7613 16.4733 13.3647 16.583C13.6756 16.6379 13.8219 16.583 13.8401 16.2173C13.895 15.303 13.9864 14.3888 14.2607 13.4928C14.535 12.5968 14.9373 11.7739 15.815 11.2985C16.4915 10.9328 17.2595 10.8414 17.9178 11.2619C18.5395 11.6642 18.4664 12.3773 18.4115 13.0173C18.4115 13.0539 18.3932 13.0905 18.3932 13.127C18.2287 14.279 18.0824 15.431 17.9178 16.5647C17.863 16.9487 17.9544 17.0767 18.3567 17.0767C19.3075 17.0402 20.2766 16.9853 21.2092 16.8207C23.0195 16.5099 24.7566 16.0162 26.2194 14.8093C28.1943 13.1636 28.3954 10.4391 26.64 8.73852C25.8355 7.93396 24.8297 7.4951 23.7326 7.22082C22.1235 6.83682 20.4778 6.89168 18.8504 7.09282C14.7727 7.60482 11.463 9.50651 9.03105 12.8162C6.32479 16.5099 5.24594 20.7521 5.15452 25.2869ZM64.7471 24.7384C64.7288 25.7989 64.7288 25.8355 65.4602 25.6161C66.8499 25.2138 67.9836 24.4092 68.7882 23.2207C69.3184 22.4527 69.227 21.6115 68.8247 20.807C68.6602 20.4595 68.3676 20.3133 67.9836 20.3133C66.8133 20.3315 65.8076 21.0264 65.3139 22.2698C64.9482 23.1475 64.7836 24.0618 64.7471 24.7384Z" fill="#F9C73C"/>
<path d="M139.315 21.4653C139.498 20.3133 139.663 19.1613 139.901 18.0093C140.851 13.3282 142.278 8.82997 144.783 4.71572C145.679 3.2346 146.721 1.84489 148.184 0.857475C148.769 0.455194 149.391 0.162626 150.104 0.0529131C151.457 -0.184799 152.463 0.382052 152.938 1.68032C153.432 3.05174 153.377 4.47801 153.194 5.886C152.774 9.46996 151.347 12.7248 149.757 15.9065C148.221 18.9602 146.465 21.9041 144.947 24.9761C144.234 26.4207 143.759 27.9566 144.399 29.6023C144.765 30.5349 144.966 30.6629 145.917 30.3155C147.709 29.6755 149.171 28.4869 150.707 27.4081C153.066 25.7807 154.675 23.495 156.358 21.2641C157.034 20.3681 157.729 19.4721 158.46 18.631C159.356 17.5887 160.527 17.2779 161.862 17.5887C163.068 17.863 163.562 18.9053 162.959 19.9841C162.556 20.7156 162.026 21.3556 161.423 21.9407C160.874 22.471 160.783 23.0561 160.929 23.751C161.167 24.8664 161.569 25.9269 161.77 27.0606C162.008 28.4503 162.154 29.8583 161.935 31.2297C161.459 34.2834 159.612 36.5508 156.358 36.4411C153.852 36.368 152.079 34.9051 151.055 32.6194C150.835 32.1074 150.689 32.1623 150.287 32.4C148.678 33.3692 147.032 34.2834 145.185 34.7406C143.375 35.1977 142.406 34.832 141.345 33.296C140.211 31.632 139.736 29.7303 139.425 27.7738C139.279 26.8412 139.169 25.9087 139.187 24.9761C139.187 24.7201 139.096 24.5738 138.913 24.4092C137.597 23.3121 136.207 22.3064 134.799 21.3373C134.689 21.2641 134.58 21.1361 134.452 21.2458C134.305 21.3738 134.433 21.5201 134.488 21.6481C134.964 22.727 135.293 23.8607 135.348 25.0492C135.494 28.4138 134.488 31.3577 131.837 33.5337C129.277 35.6548 125.766 35.344 123.791 32.9303C122.932 31.888 122.456 30.6446 122.219 29.328C121.761 26.8595 121.944 24.4458 123.041 22.1601C124.687 18.7224 128.033 17.1133 131.782 17.5156C134.36 17.7899 136.481 19.0333 138.383 20.7156C138.657 20.9533 138.913 21.2093 139.187 21.4653C139.242 21.4836 139.261 21.4653 139.315 21.4653ZM131.928 25.0492C131.91 23.8972 131.818 22.9464 131.38 22.0687C130.941 21.2093 130.301 20.8618 129.46 21.0264C128.783 21.1544 128.308 21.6116 127.924 22.1235C126.607 23.8607 126.095 25.8721 126.113 28.0298C126.113 28.8892 126.278 29.7486 126.808 30.4983C127.649 31.6869 129.149 31.76 130.081 30.6629C130.356 30.3338 130.593 29.9863 130.776 29.6023C131.526 28.0846 131.91 26.5121 131.928 25.0492ZM143.923 20.1487C145.789 16.8756 147.453 13.5293 148.605 9.94538C149.08 8.48254 149.519 7.00141 149.501 5.42886C149.501 5.17286 149.592 4.84372 149.336 4.71572C149.062 4.58773 148.806 4.80715 148.605 4.99001C148.349 5.22772 148.111 5.48371 147.891 5.73971C147.489 6.25171 147.178 6.80027 146.886 7.38541C145.624 9.96367 144.838 12.6882 144.344 15.5042C144.033 17.0402 143.832 18.5762 143.923 20.1487ZM157.363 25.6709C155.809 27.2435 154.291 28.7612 152.81 30.2789C153.359 30.6812 153.798 31.2663 154.401 31.6503C155.846 32.5829 157.546 31.9063 157.894 30.224C158.204 28.6698 157.82 27.1886 157.363 25.6709Z" fill="#F9C73C"/>
<path d="M100.495 31.12C100.404 30.7726 100.258 30.5897 99.8187 30.5714C98.7033 30.5532 97.8622 29.8217 97.7159 28.688C97.6427 28.048 97.6427 27.3898 97.7159 26.768C97.8622 25.6709 98.6667 24.9578 99.7821 24.9029C100.184 24.8846 100.404 24.7932 100.459 24.3909C100.459 24.3544 100.477 24.3178 100.514 24.2995C100.879 23.7692 100.806 23.3669 100.349 22.8549C99.709 22.1418 99.8187 21.0081 100.477 20.2767C100.861 19.8561 101.263 19.4538 101.684 19.0698C102.488 18.3567 103.695 18.3567 104.5 19.1064C104.829 19.4173 105.067 19.4904 105.451 19.2527C105.597 19.1613 105.78 19.0881 105.963 19.0516C106.237 18.9784 106.328 18.8321 106.347 18.5396C106.401 17.1316 107.261 16.327 108.687 16.3087C109.089 16.3087 109.492 16.2904 109.894 16.3087C111.101 16.3819 111.905 17.1133 111.979 18.3018C112.015 18.7956 112.18 19.0333 112.637 19.1247C112.82 19.1613 112.984 19.2527 113.149 19.3441C113.368 19.4721 113.496 19.399 113.679 19.2527C114.776 18.247 115.892 18.2836 116.934 19.3258C117.227 19.6184 117.519 19.8927 117.793 20.1853C118.616 21.0812 118.635 22.2332 117.793 23.1109C117.519 23.4035 117.446 23.6229 117.647 23.9521C117.757 24.1349 117.848 24.3544 117.903 24.5555C117.976 24.8298 118.141 24.8664 118.379 24.8846C119.841 24.9761 120.609 25.7989 120.628 27.2618C120.628 27.7189 120.646 28.176 120.591 28.6332C120.463 29.7486 119.659 30.5166 118.543 30.5532C118.159 30.5714 117.921 30.6629 117.848 31.0469C117.83 31.1931 117.775 31.3394 117.684 31.4491C117.373 31.8697 117.556 32.144 117.903 32.4C117.318 32.8388 116.641 33.0583 115.928 33.1863C114.246 33.4788 112.655 33.2777 111.229 32.2171C114.356 30.6994 115.105 26.7498 112.692 24.2081C111.064 22.5075 108.34 22.2698 106.365 23.6047C104.354 24.9578 103.695 27.7006 104.664 29.7303C103.165 29.9132 101.775 30.352 100.495 31.12Z" fill="#F9C73C"/>
<path d="M39.2754 14.4802C37.52 14.4802 36.4411 13.6757 36.24 12.2311C35.984 10.3477 37.3005 8.84827 39.3485 8.66542C39.8605 8.62885 40.3725 8.66542 40.8845 8.79342C41.8353 9.03113 42.5668 9.54313 42.7679 10.5671C43.0056 11.7557 42.7313 12.7979 41.8171 13.6208C41.1039 14.2608 40.2079 14.4802 39.2754 14.4802Z" fill="#F9C73C"/>
<path d="M111.211 32.272C112.619 33.3326 114.209 33.5337 115.91 33.2412C116.623 33.1132 117.3 32.8937 117.885 32.4549C118.141 32.2903 118.379 32.144 118.616 31.9795C118.927 31.76 119.22 31.7052 119.494 32.0343C119.787 32.4 119.622 32.6926 119.311 32.9303C118.415 33.68 117.391 34.1372 116.257 34.3932C114.063 34.8686 112.088 34.4297 110.26 33.1132C109.126 32.3086 108.029 31.4126 106.584 31.1749C104.482 30.8275 102.525 31.0652 100.788 32.4183C100.568 32.5829 100.331 32.7292 100.111 32.8937C99.8004 33.0949 99.4896 33.1497 99.2519 32.784C99.0142 32.4366 99.1239 32.1623 99.4347 31.9429C99.8004 31.6869 100.148 31.4126 100.495 31.1566C101.775 30.3886 103.165 29.9498 104.646 29.8035C106.438 29.7669 108.084 30.1692 109.583 31.1932C110.113 31.5406 110.662 31.9063 111.211 32.272Z" fill="#62BDBF"/>
<path d="M104.975 38.5622C104.975 36.7337 104.975 34.9234 104.975 33.0949C104.975 32.8754 104.994 32.656 105.122 32.4549C105.359 32.0709 105.889 32.0709 106.109 32.4732C106.255 32.7109 106.273 32.9852 106.273 33.2777C106.273 36.8251 106.273 40.3725 106.273 43.9382C106.273 44.1393 106.237 44.3405 106.182 44.5416C106.091 44.8342 105.908 45.017 105.579 44.9988C105.231 44.9805 105.085 44.761 105.03 44.4868C104.994 44.3039 104.994 44.121 104.994 43.9382C104.975 42.1279 104.975 40.3359 104.975 38.5622Z" fill="#62BDBF"/>
<path d="M103.86 35.8194C103.86 36.6788 103.86 37.5565 103.86 38.416C103.86 38.6171 103.842 38.8182 103.75 39.0011C103.512 39.4399 103 39.4765 102.744 39.0559C102.616 38.8731 102.58 38.6537 102.58 38.416C102.58 36.6788 102.58 34.96 102.58 33.2229C102.58 33.168 102.58 33.1131 102.58 33.0583C102.653 32.656 102.799 32.272 103.293 32.2903C103.75 32.3269 103.86 32.6926 103.86 33.0949C103.86 34.0091 103.86 34.9051 103.86 35.8194Z" fill="#62BDBF"/>
<path d="M113.368 39.0743C113.368 39.9703 113.368 40.8845 113.368 41.7805C113.368 42.2011 113.295 42.5851 112.747 42.5668C112.235 42.5485 112.125 42.2011 112.125 41.7622C112.125 39.9337 112.125 38.1234 112.125 36.2949C112.125 35.856 112.271 35.4903 112.747 35.4903C113.24 35.4903 113.35 35.8743 113.35 36.2949C113.368 37.2274 113.368 38.16 113.368 39.0743Z" fill="#62BDBF"/>
<path d="M115.782 38.8548C115.782 39.6228 115.782 40.3908 115.782 41.1771C115.782 41.5976 115.636 41.9085 115.179 41.9268C114.703 41.9451 114.52 41.6159 114.52 41.2136C114.502 39.6411 114.502 38.0502 114.52 36.4777C114.52 36.0754 114.685 35.728 115.16 35.7463C115.672 35.7646 115.782 36.1303 115.782 36.5508C115.782 37.3005 115.782 38.0685 115.782 38.8548Z" fill="#62BDBF"/>
<path d="M101.428 36.2583C101.428 36.8983 101.428 37.5383 101.428 38.1783C101.428 38.5805 101.3 38.9097 100.806 38.9097C100.349 38.9097 100.221 38.5988 100.221 38.2148C100.221 36.9166 100.221 35.6 100.221 34.3017C100.221 33.8812 100.386 33.5337 100.843 33.552C101.3 33.5703 101.446 33.9177 101.446 34.3383C101.428 34.9783 101.428 35.6183 101.428 36.2583Z" fill="#62BDBF"/>
<path d="M107.389 35.8377C107.389 35.1977 107.389 34.5577 107.389 33.9177C107.389 33.4972 107.517 33.168 107.992 33.168C108.45 33.1863 108.596 33.5155 108.596 33.9177C108.596 35.1977 108.596 36.496 108.596 37.776C108.596 38.1966 108.431 38.5257 107.974 38.5257C107.517 38.5257 107.371 38.1783 107.389 37.7577C107.389 37.1177 107.389 36.4777 107.389 35.8377Z" fill="#62BDBF"/>
<path d="M116.916 36.8068C116.916 36.4594 116.897 36.112 116.916 35.7645C116.934 35.4171 117.135 35.1794 117.519 35.1794C117.903 35.1611 118.141 35.3805 118.159 35.728C118.196 36.4777 118.196 37.2274 118.177 37.9771C118.159 38.3245 117.921 38.5622 117.556 38.5622C117.172 38.5622 116.952 38.3062 116.934 37.9222C116.897 37.5382 116.916 37.1725 116.916 36.8068Z" fill="#62BDBF"/>
<path d="M109.748 35.6914C109.748 35.4354 109.711 35.1794 109.821 34.9234C109.949 34.6491 110.168 34.5577 110.443 34.576C110.717 34.5943 110.863 34.7405 110.936 35.0148C111.046 35.4903 110.973 35.9657 110.918 36.4411C110.882 36.7154 110.68 36.8068 110.461 36.8251C110.187 36.8617 109.967 36.7702 109.839 36.496C109.711 36.24 109.748 35.9657 109.748 35.6914Z" fill="#62BDBF"/>
</svg>
