<svg width="50" height="50" viewBox="0 0 50 50" fill="none" xmlns="http://www.w3.org/2000/svg">
<circle cx="25" cy="25.0001" r="22.9362" stroke="white" stroke-width="2"/>
<path d="M10.267 34.737C13.1071 36.5448 16.4124 37.5 19.8251 37.5C24.8227 37.5 29.4024 35.5742 32.7218 32.0778C35.898 28.7313 37.6452 24.2348 37.5583 19.6716C38.7623 18.6382 40.1786 16.665 40.1786 14.7418C40.1786 14.0045 39.381 13.5365 38.7342 13.9122C37.6031 14.5789 36.5716 14.7533 35.5107 14.4546C33.3442 12.3364 30.1194 11.8902 27.402 13.3596C25.0272 14.6417 23.7069 16.9881 23.8257 19.5524C19.8136 19.0613 16.1069 17.0432 13.5225 13.9071C13.0981 13.3955 12.2929 13.4558 11.9554 14.0353C10.7105 16.1739 10.7233 18.6523 11.8059 20.6538C11.2908 20.7448 10.9725 21.1795 10.9725 21.65C10.9725 23.6617 11.8749 25.5106 13.3282 26.7722C13.0572 27.0338 12.9677 27.4223 13.0828 27.7684C13.7219 29.6942 15.1687 31.1995 16.9773 31.9534C15.0102 32.8958 12.8348 33.2099 10.8984 32.9714C9.89631 32.8355 9.40167 34.1869 10.267 34.737ZM20.0871 32.2829C20.8042 31.7303 20.4233 30.5789 19.5234 30.5597C17.9385 30.5264 16.4955 29.743 15.5969 28.5108C16.0302 28.4826 16.4789 28.4159 16.9058 28.3005C17.8784 28.0364 17.8324 26.6286 16.8444 26.4299C15.0511 26.0683 13.6439 24.7579 13.116 23.0706C13.5979 23.1899 14.0887 23.2565 14.5782 23.2655C15.5484 23.2706 15.9152 22.0231 15.124 21.5013C13.341 20.323 12.5805 18.242 13.0841 16.2855C16.1977 19.4498 20.422 21.3564 24.8904 21.5718C25.5308 21.6115 26.0114 21.0076 25.8708 20.3961C25.2637 17.7561 26.7336 15.906 28.3121 15.0533C29.874 14.2071 32.3818 13.943 34.3041 15.9662C34.8755 16.5701 36.8029 16.5932 37.7833 16.3637C37.3436 17.1945 36.6674 17.983 36.0347 18.4267C35.7651 18.6164 35.6104 18.9318 35.627 19.2613C35.8328 23.4732 34.2683 27.6607 31.3349 30.7495C28.3798 33.8612 24.2935 35.5755 19.8264 35.5755C18.0497 35.5755 16.3076 35.2857 14.6613 34.7267C16.6297 34.3446 18.4996 33.5087 20.0871 32.2829Z" fill="white"/>
</svg>
