<svg width="50" height="50" viewBox="0 0 50 50" fill="none" xmlns="http://www.w3.org/2000/svg">
<circle cx="25" cy="25.0001" r="22.9362" stroke="white" stroke-width="2"/>
<path d="M35.7702 34.6578C33.0419 37.3862 29.4145 38.8887 25.5561 38.8887C21.6977 38.8887 18.0702 37.3862 15.3419 34.6579C12.6136 31.9296 11.1111 28.3021 11.1111 24.4437C11.1111 20.5853 12.6136 16.9578 15.3419 14.2295C18.0702 11.5012 21.6977 9.99873 25.5561 9.99873C29.4145 9.99873 33.0419 11.5012 35.7703 14.2296C38.4985 16.9578 40.0011 20.5853 40.0011 24.4437C40.0011 28.3021 38.4985 31.9296 35.7702 34.6578ZM16.5401 33.4596C17.8103 34.7298 19.3015 35.6986 20.9268 36.331C20.4939 35.7906 20.0888 35.1694 19.7176 34.4707C19.2864 33.6593 18.9144 32.7682 18.6046 31.8163C17.5313 31.9945 16.5368 32.2135 15.6483 32.4706C15.9267 32.8129 16.2238 33.1433 16.5401 33.4596ZM14.6224 31.0125C15.6616 30.6797 16.85 30.3991 18.1468 30.1769C17.7857 28.644 17.5731 26.9945 17.5224 25.2909H12.8341C12.9673 27.3354 13.5813 29.2866 14.6224 31.0125ZM14.5301 18.0316C13.5452 19.7186 12.9633 21.6135 12.834 23.5964H17.5256C17.581 21.9415 17.7894 20.3389 18.1383 18.8462C16.8149 18.6316 15.5966 18.3582 14.5301 18.0316ZM16.5401 15.4277C16.1802 15.7878 15.8449 16.1658 15.534 16.5594C16.4551 16.8147 17.4847 17.031 18.5931 17.2045C18.9051 16.2394 19.2811 15.3365 19.7175 14.5151C20.1221 13.7537 20.5669 13.0848 21.0441 12.5117C19.3733 13.1427 17.8409 14.1271 16.5401 15.4277ZM24.7088 11.9107C23.4218 12.2712 22.2044 13.4464 21.214 15.3103C20.8676 15.9621 20.5634 16.6732 20.3027 17.4311C21.6981 17.5847 23.183 17.6755 24.7088 17.6968V11.9107ZM24.7088 19.3915C23.0167 19.3684 21.3674 19.2621 19.8229 19.0807C19.4822 20.4892 19.2772 22.0136 19.2209 23.5964H24.7089V19.3915H24.7088ZM24.7088 25.291H19.2177C19.2691 26.9179 19.4774 28.4849 19.8287 29.9292C21.3634 29.7374 23.0092 29.6207 24.7088 29.5873V25.291ZM24.7088 31.282C23.1771 31.3129 21.6955 31.4128 20.31 31.5757C20.569 32.3257 20.8709 33.0297 21.214 33.6756C22.2043 35.5395 23.4218 36.7147 24.7088 37.0752V31.282ZM36.5431 30.9225C37.5517 29.2188 38.1472 27.3 38.2782 25.291H33.5899C33.5397 26.9749 33.3312 28.6059 32.9777 30.1237C34.283 30.3345 35.4861 30.6027 36.5431 30.9225ZM34.572 33.4596C34.9122 33.1194 35.2299 32.7628 35.5264 32.3926C34.6194 32.1449 33.6095 31.9348 32.5243 31.7656C32.2112 32.7366 31.8335 33.6449 31.3946 34.4707C31.0234 35.1694 30.6183 35.7906 30.1854 36.331C31.8106 35.6986 33.3018 34.7298 34.572 33.4596ZM26.4034 23.5964H31.8913C31.8346 22.0013 31.6269 20.4653 31.2813 19.0478C29.7469 19.2386 28.1018 19.3542 26.4034 19.3867V23.5964ZM26.4034 25.291V29.5816C28.0964 29.6039 29.747 29.7092 31.293 29.8899C31.6386 28.4566 31.8435 26.9032 31.8944 25.291H26.4034ZM26.4033 37.0752H26.4033C27.6903 36.7147 28.9077 35.5395 29.8981 33.6756C30.2467 33.0195 30.5527 32.3034 30.8145 31.54C29.4172 31.387 27.9307 31.2969 26.4033 31.2763V37.0752ZM26.4034 11.9107V17.6919C27.9336 17.6619 29.4141 17.5629 30.7991 17.401C30.5407 16.6544 30.2399 15.9535 29.8982 15.3103C28.9078 13.4464 27.6903 12.2712 26.4034 11.9107ZM34.572 15.4277C33.2713 14.1271 31.7388 13.1427 30.068 12.5118C30.5452 13.0848 30.99 13.7537 31.3946 14.5151C31.8245 15.3243 32.1957 16.2128 32.505 17.1618C33.6034 16.9805 34.6195 16.7563 35.5247 16.4927C35.2288 16.1233 34.9115 15.7674 34.572 15.4277ZM36.5369 17.9542C35.4854 18.2922 34.2798 18.5767 32.9637 18.8011C33.3189 20.3066 33.5306 21.9249 33.5867 23.5964H38.2782C38.1469 21.5832 37.5493 19.6605 36.5369 17.9542Z" fill="white"/>
</svg>
