<svg width="58" height="58" viewBox="0 0 58 58" fill="none" xmlns="http://www.w3.org/2000/svg">
<g clip-path="url(#clip0)">
<path opacity="0.65" d="M48.7237 48.7239C59.87 37.5776 59.87 19.5059 48.7237 8.35955C37.5773 -2.78677 19.5056 -2.78677 8.35926 8.35955C-2.78706 19.5059 -2.78706 37.5776 8.35926 48.7239C19.5056 59.8703 37.5773 59.8703 48.7237 48.7239Z" fill="url(#paint0_radial)"/>
<path d="M45.1985 45.199C54.3978 35.9996 54.3978 21.0844 45.1985 11.885C35.9991 2.68563 21.0839 2.68563 11.8845 11.885C2.68512 21.0844 2.68512 35.9996 11.8845 45.199C21.0839 54.3984 35.9991 54.3984 45.1985 45.199Z" fill="url(#paint1_radial)"/>
<path d="M29.3029 47.152C39.5809 47.152 47.9128 38.82 47.9128 28.542C47.9128 18.2641 39.5809 9.93213 29.3029 9.93213C19.0249 9.93213 10.693 18.2641 10.693 28.542C10.693 38.82 19.0249 47.152 29.3029 47.152Z" fill="url(#paint2_linear)"/>
<path d="M27.7809 47.152C38.0589 47.152 46.3908 38.82 46.3908 28.542C46.3908 18.2641 38.0589 9.93213 27.7809 9.93213C17.5029 9.93213 9.17096 18.2641 9.17096 28.542C9.17096 38.82 17.5029 47.152 27.7809 47.152Z" fill="url(#paint3_linear)"/>
<path d="M27.781 44.205C36.4314 44.205 43.4439 37.1925 43.4439 28.5421C43.4439 19.8917 36.4314 12.8792 27.781 12.8792C19.1306 12.8792 12.118 19.8917 12.118 28.5421C12.118 37.1925 19.1306 44.205 27.781 44.205Z" fill="url(#paint4_linear)"/>
<path d="M27.7809 44.2048C36.4313 44.2048 43.4438 37.1922 43.4438 28.5418C43.4438 19.8914 36.4313 12.8789 27.7809 12.8789C19.1305 12.8789 12.118 19.8914 12.118 28.5418C12.118 37.1922 19.1305 44.2048 27.7809 44.2048Z" stroke="#79F2BB" stroke-width="4" stroke-miterlimit="10"/>
<path d="M36.3916 37.9998H35.9701H27.4428C26.0713 38.0049 24.7148 37.7155 23.4649 37.151C22.4764 36.711 21.5723 36.1016 20.7935 35.3504C19.5804 34.1729 18.7085 32.7725 18.2293 31.1424C17.8991 30.0169 17.7933 28.8705 17.8714 27.6984C18.0355 25.3357 19.0811 23.1209 20.8011 21.4926C21.9232 20.4156 23.2914 19.6289 24.7868 19.201C25.8074 18.905 26.848 18.8113 27.9079 18.8564C29.7457 18.9353 31.4096 19.5202 32.9138 20.5624C33.9494 21.2836 34.83 22.205 35.5038 23.2721C36.6105 24.9981 37.1291 27.0359 36.9822 29.0809C36.8917 30.4752 36.4901 31.8315 35.8071 33.0504C35.6626 33.3108 35.6585 33.4936 35.765 33.7578C36.2013 34.839 36.425 35.9649 36.3928 37.1363C36.3871 37.4122 36.3916 37.6897 36.3916 37.9998ZM34.5974 31.6508C35.8723 28.9213 35.5371 24.9594 32.4638 22.3733C29.7981 20.1302 25.716 19.7765 22.5744 22.2137C19.8044 24.3643 18.6091 28.2704 20.3446 31.8881C21.1229 33.5102 22.3633 34.7093 23.9752 35.5092C24.6197 35.8292 25.299 36.0653 26.0413 36.1309C24.7292 35.0588 23.7258 33.7688 23.1222 32.1884C22.5187 30.6079 22.2882 28.9964 22.767 27.3087L21.8413 27.2548V25.5804C21.8878 25.5744 21.9347 25.5723 21.9815 25.574C22.4807 25.6323 22.9796 25.6924 23.4782 25.754C23.5855 25.7673 23.6791 25.7851 23.7686 25.685C24.5302 24.8351 25.4783 24.312 26.5997 24.1148C27.4103 23.9776 28.2424 24.0466 29.0193 24.3155C29.7962 24.5844 30.493 25.0446 31.0453 25.6536C31.082 25.7004 31.1318 25.7352 31.1884 25.7537C31.2449 25.7721 31.3057 25.7733 31.363 25.7571C31.5879 25.7019 31.8157 25.6592 32.0453 25.6289C32.3558 25.5944 32.6685 25.5838 32.9991 25.5618V27.2514L32.0616 27.3223C32.0825 27.4053 32.0916 27.4474 32.1037 27.4884C32.2906 28.1169 32.3804 28.7545 32.305 29.4123C32.297 29.4813 32.3668 29.5866 32.4309 29.6321C33.1989 30.1803 33.8983 30.7997 34.4749 31.5511C34.512 31.5887 34.5531 31.6221 34.5974 31.6508V31.6508ZM27.4405 30.606C27.4132 30.5895 27.3878 30.57 27.3647 30.548C27.2388 30.3839 27.1084 30.2231 26.992 30.0529C26.3684 29.1431 25.5856 28.4149 24.5905 27.9251C24.41 27.836 24.3664 27.8409 24.338 28.0346C24.2842 28.4001 24.2061 28.7716 24.2243 29.1363C24.2834 30.3494 24.8824 31.2592 25.9461 31.8066C27.0398 32.3715 28.1399 32.3119 29.19 31.6326C30.032 31.0878 30.4872 30.2963 30.6177 29.3262C30.6829 28.8429 30.6525 28.3455 30.4281 27.8508C29.0967 28.4069 28.2279 29.4608 27.4405 30.606ZM31.7746 31.263C31.7295 31.3324 31.6875 31.3919 31.6507 31.4548C31.3449 31.9779 30.9405 32.4366 30.46 32.8055C30.3481 32.8908 30.3462 32.9613 30.4054 33.0747C31.2579 34.6691 32.5533 35.6904 34.3187 36.1051C34.6565 36.1844 34.6599 36.1809 34.594 35.8299C34.594 35.8235 34.5902 35.8178 34.589 35.8117C34.4111 34.7869 34.0122 33.813 33.4199 32.9579C32.9722 32.3081 32.4445 31.7327 31.7743 31.263H31.7746ZM30.6158 36.1885L30.6594 36.1457C30.6248 36.0916 30.5868 36.0398 30.5456 35.9906C30.2803 35.7075 29.977 35.4493 29.7465 35.1396C29.4353 34.7226 29.1756 34.2677 28.897 33.8283C28.8374 33.7347 28.798 33.6554 28.6509 33.7047C28.4551 33.7711 28.2526 33.8158 28.047 33.8382C27.4484 33.9007 26.8525 33.8833 26.2653 33.7271C26.1948 33.7081 26.1171 33.7169 26.0428 33.7127C26.0375 33.7328 26.0318 33.7525 26.0265 33.7726C27.2557 35.1451 28.7855 35.9505 30.6158 36.1885ZM25.4408 26.4265C25.7922 26.654 26.1428 26.8606 26.4696 27.0998C26.7964 27.339 27.1092 27.6188 27.4215 27.8754C27.7422 27.6101 28.0455 27.336 28.3746 27.096C28.7036 26.856 29.06 26.6487 29.4072 26.4258C28.218 25.4852 26.5272 25.552 25.4408 26.4265Z" fill="white"/>
</g>
<defs>
<radialGradient id="paint0_radial" cx="0" cy="0" r="1" gradientUnits="userSpaceOnUse" gradientTransform="translate(28.5411 28.5414) scale(35.461)">
<stop stop-color="#41C89A"/>
<stop offset="0.99" stop-color="#42C99B" stop-opacity="0"/>
</radialGradient>
<radialGradient id="paint1_radial" cx="0" cy="0" r="1" gradientUnits="userSpaceOnUse" gradientTransform="translate(28.5412 28.5417) scale(33.6438)">
<stop stop-color="#55D6A2"/>
<stop offset="0.99" stop-color="#38C297" stop-opacity="0"/>
</radialGradient>
<linearGradient id="paint2_linear" x1="35.1697" y1="28.542" x2="68.3321" y2="28.542" gradientUnits="userSpaceOnUse">
<stop stop-color="#20978D"/>
<stop offset="0.99" stop-color="#33BE95"/>
</linearGradient>
<linearGradient id="paint3_linear" x1="41.716" y1="42.4772" x2="12.7974" y2="13.5547" gradientUnits="userSpaceOnUse">
<stop stop-color="#20B18D"/>
<stop offset="0.99" stop-color="#66E2A9"/>
</linearGradient>
<linearGradient id="paint4_linear" x1="1522.96" y1="1688.5" x2="3296.01" y2="3210.31" gradientUnits="userSpaceOnUse">
<stop stop-color="#20B18D"/>
<stop offset="0.99" stop-color="#66E2A9"/>
</linearGradient>
<clipPath id="clip0">
<rect width="57.08" height="57.08" fill="white"/>
</clipPath>
</defs>
</svg>
