<svg width="56" height="56" viewBox="0 0 56 56" fill="none" xmlns="http://www.w3.org/2000/svg">
<g clip-path="url(#clip0)">
<path opacity="0.65" d="M47.8018 47.802C58.7372 36.8666 58.7372 19.1368 47.8018 8.20137C36.8663 -2.73405 19.1365 -2.73405 8.20109 8.20137C-2.73433 19.1368 -2.73433 36.8666 8.20109 47.802C19.1365 58.7375 36.8663 58.7375 47.8018 47.802Z" fill="url(#paint0_radial)"/>
<path d="M44.3433 44.3435C53.3686 35.3182 53.3686 20.6852 44.3433 11.6599C35.318 2.63457 20.685 2.63457 11.6597 11.6599C2.63435 20.6852 2.63435 35.3182 11.6597 44.3435C20.685 53.3688 35.318 53.3688 44.3433 44.3435Z" fill="url(#paint1_radial)"/>
<path d="M28.7485 46.2598C38.832 46.2598 47.0063 38.0855 47.0063 28.0019C47.0063 17.9184 38.832 9.74414 28.7485 9.74414C18.665 9.74414 10.4907 17.9184 10.4907 28.0019C10.4907 38.0855 18.665 46.2598 28.7485 46.2598Z" fill="url(#paint2_linear)"/>
<path d="M27.2552 46.2598C37.3387 46.2598 45.513 38.0855 45.513 28.0019C45.513 17.9184 37.3387 9.74414 27.2552 9.74414C17.1717 9.74414 8.99744 17.9184 8.99744 28.0019C8.99744 38.0855 17.1717 46.2598 27.2552 46.2598Z" fill="url(#paint3_linear)"/>
<path d="M27.2554 43.3686C35.7421 43.3686 42.6219 36.4888 42.6219 28.0021C42.6219 19.5153 35.7421 12.6355 27.2554 12.6355C18.7686 12.6355 11.8888 19.5153 11.8888 28.0021C11.8888 36.4888 18.7686 43.3686 27.2554 43.3686Z" fill="url(#paint4_linear)"/>
<path d="M35.9965 37.3285H35.5724H26.9917C25.6118 37.3336 24.2468 37.0424 22.9891 36.4744C21.9943 36.0316 21.0846 35.4184 20.3009 34.6625C19.0802 33.4777 18.2029 32.0686 17.7207 30.4283C17.3884 29.2957 17.282 28.1422 17.3606 26.9627C17.5257 24.5853 18.5779 22.3566 20.3085 20.7182C21.4377 19.6344 22.8145 18.8428 24.3192 18.4122C25.3461 18.1143 26.3932 18.0201 27.4598 18.0655C29.3091 18.1448 30.9834 18.7334 32.497 19.7821C33.5391 20.5079 34.4252 21.435 35.1032 22.5088C36.2168 24.2456 36.7387 26.296 36.5909 28.3539C36.4997 29.7569 36.0956 31.1217 35.4083 32.3482C35.263 32.6102 35.2588 32.7941 35.366 33.06C35.805 34.1479 36.0301 35.2808 35.9977 36.4596C35.992 36.7373 35.9965 37.0165 35.9965 37.3285ZM34.1911 30.9398C35.4739 28.1933 35.1367 24.2066 32.0442 21.6043C29.3618 19.3472 25.2542 18.9913 22.093 21.4437C19.3057 23.6077 18.1029 27.5383 19.8493 31.1786C20.6324 32.8109 21.8805 34.0174 23.5025 34.8223C24.151 35.1443 24.8346 35.3819 25.5815 35.4479C24.2612 34.3692 23.2515 33.071 22.6442 31.4807C22.0369 29.8904 21.805 28.2688 22.2868 26.5706L21.3553 26.5164V24.8315C21.4021 24.8255 21.4493 24.8233 21.4964 24.825C21.9987 24.8837 22.5007 24.9441 23.0024 25.0062C23.1104 25.0195 23.2046 25.0375 23.2946 24.9368C24.061 24.0815 25.015 23.5551 26.1434 23.3567C26.9591 23.2186 27.7964 23.2881 28.5781 23.5587C29.3599 23.8293 30.061 24.2923 30.6168 24.9051C30.6537 24.9522 30.7038 24.9873 30.7608 25.0058C30.8177 25.0244 30.8788 25.0255 30.9364 25.0092C31.1628 24.9538 31.392 24.9107 31.6231 24.8803C31.9355 24.8456 32.2502 24.8349 32.5828 24.8128V26.513L31.6395 26.5843C31.6605 26.6678 31.6696 26.7102 31.6818 26.7514C31.8699 27.3838 31.9603 28.0255 31.8844 28.6873C31.8764 28.7567 31.9466 28.8628 32.011 28.9085C32.7839 29.4601 33.4877 30.0834 34.0679 30.8395C34.1052 30.8773 34.1465 30.9109 34.1911 30.9398V30.9398ZM26.9895 29.8885C26.962 29.8719 26.9364 29.8523 26.9132 29.8301C26.7865 29.665 26.6553 29.5032 26.5382 29.332C25.9107 28.4164 25.123 27.6837 24.1216 27.1908C23.9401 27.1012 23.8962 27.1061 23.8676 27.3011C23.8134 27.6688 23.7348 28.0426 23.7531 28.4096C23.8126 29.6303 24.4154 30.5458 25.4857 31.0966C26.5863 31.665 27.6933 31.6051 28.7499 30.9215C29.5971 30.3733 30.0553 29.5769 30.1865 28.6007C30.2521 28.1143 30.2216 27.6139 29.9958 27.116C28.6561 27.6757 27.7818 28.7361 26.9895 29.8885ZM31.3507 30.5496C31.3053 30.6194 31.263 30.6793 31.226 30.7426C30.9183 31.2689 30.5114 31.7305 30.0278 32.1017C29.9153 32.1876 29.9134 32.2585 29.9729 32.3726C30.8308 33.977 32.1342 35.0047 33.9107 35.422C34.2506 35.5017 34.254 35.4983 34.1876 35.145C34.1876 35.1386 34.1838 35.1328 34.1827 35.1267C34.0036 34.0955 33.6022 33.1156 33.0063 32.2551C32.5558 31.6013 32.0248 31.0222 31.3503 30.5496H31.3507ZM30.1846 35.5059L30.2285 35.4628C30.1937 35.4084 30.1555 35.3563 30.114 35.3068C29.847 35.0218 29.5418 34.7621 29.3099 34.4504C28.9967 34.0308 28.7354 33.573 28.455 33.1309C28.3951 33.0367 28.3555 32.957 28.2075 33.0066C28.0104 33.0733 27.8066 33.1184 27.5998 33.1408C26.9975 33.2038 26.3978 33.1862 25.8069 33.0291C25.736 33.01 25.6578 33.0188 25.583 33.0146C25.5777 33.0348 25.5719 33.0546 25.5666 33.0749C26.8036 34.456 28.3429 35.2663 30.1846 35.5059ZM24.9772 25.6829C25.3309 25.9118 25.6837 26.1197 26.0125 26.3604C26.3414 26.6011 26.6561 26.8826 26.9704 27.1408C27.2931 26.8738 27.5983 26.598 27.9294 26.3566C28.2605 26.1151 28.6191 25.9064 28.9685 25.6821C27.7718 24.7357 26.0705 24.8029 24.9772 25.6829Z" fill="white"/>
<path d="M27.2552 43.3684C35.742 43.3684 42.6218 36.4886 42.6218 28.0018C42.6218 19.5151 35.742 12.6353 27.2552 12.6353C18.7685 12.6353 11.8887 19.5151 11.8887 28.0018C11.8887 36.4886 18.7685 43.3684 27.2552 43.3684Z" stroke="#79F2BB" stroke-width="4" stroke-miterlimit="10"/>
</g>
<defs>
<radialGradient id="paint0_radial" cx="0" cy="0" r="1" gradientUnits="userSpaceOnUse" gradientTransform="translate(28.0011 28.0014) scale(34.79)">
<stop stop-color="#41C89A"/>
<stop offset="0.99" stop-color="#42C99B" stop-opacity="0"/>
</radialGradient>
<radialGradient id="paint1_radial" cx="0" cy="0" r="1" gradientUnits="userSpaceOnUse" gradientTransform="translate(28.0012 28.0014) scale(33.0073)">
<stop stop-color="#55D6A2"/>
<stop offset="0.99" stop-color="#38C297" stop-opacity="0"/>
</radialGradient>
<linearGradient id="paint2_linear" x1="34.5043" y1="28.0019" x2="67.0393" y2="28.0019" gradientUnits="userSpaceOnUse">
<stop stop-color="#20978D"/>
<stop offset="0.99" stop-color="#33BE95"/>
</linearGradient>
<linearGradient id="paint3_linear" x1="40.9267" y1="41.6734" x2="12.5553" y2="13.2982" gradientUnits="userSpaceOnUse">
<stop stop-color="#20B18D"/>
<stop offset="0.99" stop-color="#66E2A9"/>
</linearGradient>
<linearGradient id="paint4_linear" x1="1494.15" y1="1656.55" x2="3233.64" y2="3149.57" gradientUnits="userSpaceOnUse">
<stop stop-color="#20B18D"/>
<stop offset="0.99" stop-color="#66E2A9"/>
</linearGradient>
<clipPath id="clip0">
<rect width="56" height="56" fill="white"/>
</clipPath>
</defs>
</svg>
