<svg width="210" height="47" viewBox="0 0 210 47" fill="none" xmlns="http://www.w3.org/2000/svg">
<path d="M70.2508 34.1C68.0649 34.1 66.0833 33.632 64.3059 32.6959C62.549 31.7394 61.1598 30.4268 60.1384 28.7582C59.1374 27.0691 58.6368 25.1664 58.6368 23.05C58.6368 20.9336 59.1374 19.0411 60.1384 17.3724C61.1598 15.6833 62.549 14.3708 64.3059 13.4347C66.0833 12.4782 68.0751 12 70.2815 12C72.1405 12 73.8157 12.3256 75.3071 12.9768C76.8188 13.628 78.0854 14.5641 79.1069 15.7851L75.9199 18.7155C74.4695 17.0468 72.6717 16.2124 70.5266 16.2124C69.1987 16.2124 68.0138 16.5075 66.972 17.0977C65.9301 17.6675 65.1129 18.4713 64.5205 19.5091C63.9484 20.547 63.6624 21.7273 63.6624 23.05C63.6624 24.3727 63.9484 25.553 64.5205 26.5909C65.1129 27.6287 65.9301 28.4427 66.972 29.0329C68.0138 29.6027 69.1987 29.8876 70.5266 29.8876C72.6717 29.8876 74.4695 29.0431 75.9199 27.354L79.1069 30.2844C78.0854 31.5257 76.8188 32.472 75.3071 33.1232C73.7953 33.7744 72.1099 34.1 70.2508 34.1Z" fill="white"/>
<path d="M102.133 12.3663V33.7337H97.1683V24.9731H87.4236V33.7337H82.4593V12.3663H87.4236V20.7912H97.1683V12.3663H102.133Z" fill="white"/>
<path d="M120.875 33.7337L116.738 27.7814H112.172V33.7337H107.208V12.3663H116.493C118.393 12.3663 120.037 12.6817 121.426 13.3126C122.836 13.9434 123.919 14.8388 124.675 15.9988C125.431 17.1587 125.809 18.5323 125.809 20.1196C125.809 21.7069 125.42 23.0805 124.644 24.2405C123.888 25.3801 122.805 26.2551 121.396 26.8656L126.207 33.7337H120.875ZM120.783 20.1196C120.783 18.919 120.395 18.0032 119.618 17.3724C118.842 16.7212 117.708 16.3956 116.217 16.3956H112.172V23.8436H116.217C117.708 23.8436 118.842 23.518 119.618 22.8669C120.395 22.2157 120.783 21.2999 120.783 20.1196Z" fill="white"/>
<path d="M133.886 16.3956H127.022V12.3663H145.714V16.3956H138.85V33.7337H133.886V16.3956Z" fill="white"/>
<path d="M162.788 28.0256H150.837L148.263 33.7337H145.903L155.709 12.3663H157.946L167.752 33.7337H165.362L162.788 28.0256ZM161.961 26.1941L156.812 14.7167L151.664 26.1941H161.961Z" fill="white"/>
<path d="M179.329 12.3663C182.067 12.3663 184.212 13.0175 185.765 14.3199C187.317 15.6223 188.093 17.4131 188.093 19.6923C188.093 21.9715 187.317 23.7622 185.765 25.0646C184.212 26.3467 182.067 26.9877 179.329 26.9877H173.568V33.7337H171.301V12.3663H179.329ZM179.268 25.0036C181.393 25.0036 183.017 24.5457 184.14 23.63C185.264 22.6939 185.826 21.3813 185.826 19.6923C185.826 17.9625 185.264 16.6398 184.14 15.724C183.017 14.7879 181.393 14.3199 179.268 14.3199H173.568V25.0036H179.268Z" fill="white"/>
<path d="M201.025 12.3663C203.763 12.3663 205.908 13.0175 207.461 14.3199C209.013 15.6223 209.79 17.4131 209.79 19.6923C209.79 21.9715 209.013 23.7622 207.461 25.0646C205.908 26.3467 203.763 26.9877 201.025 26.9877H195.264V33.7337H192.997V12.3663H201.025ZM200.964 25.0036C203.089 25.0036 204.713 24.5457 205.836 23.63C206.96 22.6939 207.522 21.3813 207.522 19.6923C207.522 17.9625 206.96 16.6398 205.836 15.724C204.713 14.7879 203.089 14.3199 200.964 14.3199H195.264V25.0036H200.964Z" fill="white"/>
<g clip-path="url(#clip0)">
<path d="M41.9157 43.2182H41.0463H23.4597C20.6313 43.2287 17.8337 42.6317 15.2559 41.4677C13.2172 40.5601 11.3526 39.3033 9.74634 37.754C7.24447 35.3256 5.44625 32.4375 4.45802 29.0757C3.77704 26.7544 3.55891 24.3901 3.71997 21.9727C4.05845 17.1 6.21486 12.5321 9.76198 9.1741C12.0763 6.95279 14.8981 5.33038 17.9822 4.44793C20.0869 3.83731 22.233 3.6442 24.419 3.73724C28.2094 3.89986 31.6408 5.10623 34.7431 7.25549C36.8789 8.74305 38.6951 10.6433 40.0846 12.844C42.3671 16.4037 43.4367 20.6063 43.1338 24.824C42.947 27.6996 42.1188 30.4968 40.7101 33.0106C40.4122 33.5477 40.4036 33.9246 40.6233 34.4695C41.5232 36.6993 41.9845 39.0213 41.918 41.4372C41.9063 42.0064 41.9157 42.5787 41.9157 43.2182ZM38.2153 30.1241C40.8446 24.4949 40.1534 16.324 33.8151 10.9903C28.3172 6.3642 19.8985 5.63475 13.4194 10.6612C7.70654 15.0965 5.24142 23.1525 8.82065 30.6135C10.4258 33.959 12.9839 36.4319 16.3083 38.0816C17.6374 38.7415 19.0384 39.2285 20.5693 39.3638C17.8633 37.1528 15.7938 34.4922 14.5491 31.2327C13.3045 27.9733 12.8291 24.6497 13.8166 21.169L11.9073 21.058V17.6046C12.0032 17.5923 12.1 17.5879 12.1966 17.5913C13.226 17.7117 14.2549 17.8355 15.2833 17.9627C15.5045 17.99 15.6977 18.0268 15.8822 17.8204C17.4529 16.0675 19.4082 14.9886 21.7209 14.582C23.3927 14.299 25.1088 14.4413 26.7111 14.9959C28.3135 15.5505 29.7504 16.4995 30.8895 17.7555C30.9652 17.8521 31.0679 17.9239 31.1846 17.9619C31.3013 17.9999 31.4266 18.0024 31.5447 17.9689C32.0086 17.8553 32.4784 17.7671 32.952 17.7047C33.5923 17.6335 34.2373 17.6116 34.919 17.5663V21.0509L32.9856 21.1971C33.0286 21.3683 33.0473 21.4551 33.0724 21.5396C33.4578 22.8358 33.6431 24.1509 33.4875 25.5074C33.4711 25.6497 33.615 25.867 33.7471 25.9608C35.3311 27.0914 36.7736 28.3689 37.9627 29.9185C38.0392 29.9959 38.1239 30.0649 38.2153 30.1241V30.1241ZM23.455 27.9694C23.3987 27.9352 23.3463 27.8951 23.2987 27.8497C23.0391 27.5112 22.7701 27.1797 22.5301 26.8287C21.244 24.9523 19.6295 23.4504 17.5772 22.4402C17.205 22.2565 17.1151 22.2667 17.0565 22.6662C16.9455 23.4199 16.7844 24.1861 16.8219 24.9382C16.9439 27.4401 18.1792 29.3165 20.373 30.4454C22.6286 31.6104 24.8975 31.4876 27.0632 30.0866C28.7996 28.9631 29.7386 27.3306 30.0076 25.3299C30.142 24.3331 30.0795 23.3073 29.6167 22.287C26.8709 23.4339 25.0789 25.6074 23.455 27.9694ZM32.3937 29.3243C32.3007 29.4674 32.2139 29.5901 32.1381 29.7199C31.5075 30.7986 30.6735 31.7447 29.6823 32.5056C29.4517 32.6815 29.4478 32.8269 29.5697 33.0607C31.3281 36.349 33.9996 38.4553 37.6406 39.3106C38.3372 39.474 38.3443 39.467 38.2082 38.743C38.2082 38.7297 38.2004 38.718 38.1981 38.7055C37.8311 36.5918 37.0083 34.5834 35.7869 32.8199C34.8635 31.4798 33.7752 30.293 32.3929 29.3243H32.3937ZM30.0037 39.4826L30.0936 39.3943C30.0224 39.2827 29.944 39.1759 29.859 39.0745C29.3117 38.4905 28.6863 37.9581 28.2109 37.3193C27.569 36.4593 27.0335 35.5211 26.4588 34.6149C26.3361 34.4218 26.2548 34.2584 25.9514 34.3601C25.5475 34.4969 25.1299 34.5892 24.706 34.6353C23.4714 34.7643 22.2424 34.7283 21.0313 34.4062C20.8859 34.3671 20.7256 34.3851 20.5724 34.3765C20.5615 34.4179 20.5497 34.4586 20.5388 34.5C23.074 37.3308 26.229 38.9916 30.0037 39.4826ZM19.3308 19.3497C20.0556 19.8188 20.7788 20.2449 21.4527 20.7382C22.1267 21.2315 22.7717 21.8085 23.4159 22.3378C24.0774 21.7905 24.7028 21.2253 25.3815 20.7304C26.0601 20.2355 26.795 19.8078 27.5112 19.3481C25.0586 17.4084 21.5716 17.546 19.3308 19.3497Z" fill="#12A37F"/>
</g>
<defs>
<clipPath id="clip0">
<rect width="46.9094" height="46.8" fill="white"/>
</clipPath>
</defs>
</svg>
